<?xml version="1.0" encoding="UTF-8"?><svg xmlns="http://www.w3.org/2000/svg" viewBox="0 0 675 83"><defs><style>.cls-1{stroke:#231f20;}.cls-1,.cls-2,.cls-3{fill:none;stroke-miterlimit:10;stroke-width:2px;}.cls-4{fill:#f1f2f2;}.cls-2{stroke:#1c75bc;}.cls-3{stroke:#ed1c24;}</style></defs><g id="Layer_1"><g><path class="cls-4" d="m11.7,70.73V14.06h32.34v3.78H15.48v17.63h19.26v3.78H15.48v27.69h30.53v3.78H11.7Z"/><path class="cls-4" d="m94.95,14.06v60.2L56.08,22.66v48.07h-3.78V11.39l38.87,51.6V14.06h3.78Z"/><path class="cls-4" d="m125.25,14.06c3.91,0,7.58.75,11.03,2.24,3.45,1.49,6.45,3.53,9,6.11,2.56,2.58,4.58,5.59,6.08,9.03,1.49,3.44,2.24,7.11,2.24,11.01s-.75,7.57-2.24,11.01c-1.49,3.44-3.52,6.44-6.08,8.99-2.56,2.55-5.56,4.57-9,6.06-3.45,1.49-7.12,2.24-11.03,2.24h-17.23V14.06h17.23Zm24.56,28.38c0-3.38-.64-6.56-1.94-9.55-1.29-2.98-3.05-5.59-5.29-7.83-2.24-2.24-4.84-4-7.83-5.29-2.98-1.29-6.16-1.94-9.55-1.94h-13.42v49.11h13.42c3.38,0,6.56-.65,9.55-1.94,2.98-1.29,5.59-3.04,7.83-5.25,2.24-2.21,4-4.8,5.29-7.78,1.29-2.98,1.94-6.16,1.94-9.55Z"/><path class="cls-4" d="m167.79,48.63v22.1h-3.78V14.06h15.91c2.41,0,4.66.49,6.75,1.46,2.09.98,3.91,2.25,5.46,3.83,1.55,1.58,2.75,3.4,3.61,5.46.86,2.06,1.29,4.21,1.29,6.45,0,3.56-.97,6.81-2.92,9.76-1.95,2.95-4.67,5.06-8.17,6.32,1.38,1.84,2.84,3.76,4.39,5.76,1.55,2.01,3.1,4.01,4.64,6.02,1.55,2.01,3.08,4,4.6,5.98,1.52,1.98,2.97,3.86,4.34,5.63h-4.82l-17.03-22.1h-14.28Zm0-30.79v27h12.13c1.89,0,3.64-.36,5.25-1.07,1.6-.72,3.01-1.69,4.21-2.92,1.21-1.23,2.15-2.67,2.84-4.3.69-1.63,1.03-3.37,1.03-5.2s-.34-3.57-1.03-5.2c-.69-1.63-1.63-3.07-2.84-4.3-1.2-1.23-2.61-2.21-4.21-2.92-1.61-.72-3.35-1.08-5.25-1.08h-12.13Z"/><path class="cls-4" d="m317.86,55.25c0,2.58-.56,4.87-1.68,6.88-1.12,2.01-2.62,3.7-4.52,5.07s-4.11,2.41-6.67,3.1c-2.55.69-5.26,1.03-8.13,1.03-1.2,0-2.54-.09-4-.26-1.46-.17-2.95-.4-4.47-.69-1.52-.29-3.04-.64-4.56-1.07-1.52-.43-2.97-.87-4.34-1.33l1.51-3.18,2.27.52c.69.17,1.52.37,2.5.6.98.23,2.01.46,3.1.69,1.09.23,2.17.42,3.23.56,1.06.14,2.03.21,2.89.21h3.62c2.01,0,3.94-.29,5.78-.86,1.84-.57,3.46-1.39,4.87-2.45,1.41-1.06,2.53-2.38,3.36-3.96.83-1.58,1.25-3.4,1.25-5.46,0-.92-.21-1.91-.64-2.97-.43-1.06-.9-1.94-1.42-2.62-.86-1.15-1.82-2.06-2.88-2.75-1.06-.69-2.16-1.22-3.31-1.59-1.15-.37-2.32-.63-3.53-.77-1.2-.14-2.44-.27-3.7-.39-2.01-.11-4-.3-5.98-.56-1.98-.26-3.91-.96-5.8-2.11h.09c-2.01-1.15-3.67-2.78-4.99-4.9-1.32-2.12-1.98-4.5-1.98-7.14,0-3.73,1.36-6.92,4.09-9.59,2.72-2.67,6.41-4.46,11.05-5.38.63-.11,1.6-.23,2.92-.34,1.32-.11,2.87-.17,4.64-.17.92,0,1.96.08,3.14.25,1.17.17,2.38.39,3.61.67,1.23.28,2.44.59,3.61.93,1.17.34,2.25.7,3.23,1.09l-1.46,3.51c-1.38-.52-2.67-.93-3.87-1.25-1.21-.31-2.37-.59-3.48-.82-1.12-.23-2.22-.39-3.31-.47-1.09-.09-2.27-.13-3.53-.13-1.89,0-3.83.23-5.8.69-1.98.46-3.79,1.17-5.42,2.11-1.63.95-2.98,2.16-4.04,3.63-1.06,1.47-1.59,3.24-1.59,5.31,0,1.38.44,2.91,1.34,4.58.89,1.67,2,2.94,3.32,3.8,1.67,1.04,3.35,1.68,5.04,1.94s3.43.45,5.22.56c2.01.12,4.12.39,6.33.82,2.21.43,4.3,1.28,6.25,2.54,2.07,1.32,3.72,3.1,4.96,5.33s1.85,4.5,1.85,6.79Z"/><path class="cls-4" d="m375.48,63.85c-2.81,2.35-5.85,4.17-9.12,5.46-3.27,1.29-6.71,1.94-10.32,1.94-4.01,0-7.77-.77-11.27-2.32-3.5-1.55-6.55-3.63-9.16-6.23-2.61-2.61-4.66-5.68-6.15-9.2-1.49-3.53-2.24-7.27-2.24-11.22s.75-7.77,2.24-11.27c1.49-3.5,3.54-6.55,6.15-9.16,2.61-2.61,5.66-4.67,9.16-6.19,3.5-1.52,7.25-2.28,11.27-2.28,3.1,0,6.15.53,9.16,1.59,3.01,1.06,5.92,2.59,8.73,4.6l-3.01,2.32c-2.18-1.55-4.53-2.72-7.05-3.53-2.52-.8-5.13-1.2-7.83-1.2-3.5,0-6.77.66-9.8,1.98s-5.69,3.11-7.96,5.37c-2.26,2.26-4.04,4.92-5.33,7.98s-1.93,6.34-1.93,9.83.64,6.68,1.93,9.74,3.07,5.72,5.33,7.98c2.27,2.26,4.92,4.06,7.96,5.41,3.04,1.35,6.31,2.02,9.8,2.02,3.1,0,6.08-.59,8.94-1.76,2.87-1.17,5.56-2.82,8.08-4.95l2.41,3.1Z"/><path class="cls-4" d="m389.06,14.06v56.67h-3.96V14.06h3.96Z"/><path class="cls-4" d="m403.68,70.73V14.06h32.34v3.78h-28.55v17.63h19.26v3.78h-19.26v27.69h30.53v3.78h-34.31Z"/><path class="cls-4" d="m486.93,14.06v60.2l-38.87-51.6v48.07h-3.78V11.39l38.87,51.6V14.06h3.78Z"/><path class="cls-4" d="m542.74,14.06v3.78h-22.36v52.89h-3.78V17.84h-22.53v-3.78h48.68Z"/><path class="cls-4" d="m553.15,14.06v56.67h-3.96V14.06h3.96Z"/><path class="cls-4" d="m599.16,14.06v3.78h-27.61v17.89h21.67v3.78h-21.67v31.22h-3.78V14.06h31.39Z"/><path class="cls-4" d="m608.88,14.06v56.67h-3.96V14.06h3.96Z"/><path class="cls-4" d="m665.29,63.85c-2.81,2.35-5.85,4.17-9.12,5.46-3.27,1.29-6.71,1.94-10.32,1.94-4.01,0-7.77-.77-11.27-2.32-3.5-1.55-6.55-3.63-9.16-6.23-2.61-2.61-4.66-5.68-6.15-9.2-1.49-3.53-2.24-7.27-2.24-11.22s.74-7.77,2.24-11.27c1.49-3.5,3.54-6.55,6.15-9.16,2.61-2.61,5.66-4.67,9.16-6.19,3.5-1.52,7.25-2.28,11.27-2.28,3.1,0,6.15.53,9.16,1.59,3.01,1.06,5.92,2.59,8.73,4.6l-3.01,2.32c-2.18-1.55-4.53-2.72-7.05-3.53-2.52-.8-5.13-1.2-7.83-1.2-3.5,0-6.77.66-9.8,1.98-3.04,1.32-5.69,3.11-7.96,5.37-2.27,2.26-4.04,4.92-5.33,7.98s-1.93,6.34-1.93,9.83.64,6.68,1.93,9.74,3.07,5.72,5.33,7.98c2.26,2.26,4.92,4.06,7.96,5.41,3.04,1.35,6.31,2.02,9.8,2.02,3.1,0,6.08-.59,8.94-1.76,2.87-1.17,5.56-2.82,8.08-4.95l2.41,3.1Z"/></g></g><g id="Layer_3"><ellipse class="cls-1" cx="237.23" cy="42" rx="24.14" ry="35"/><ellipse class="cls-2" cx="237.02" cy="41.89" rx="35" ry="24.14" transform="translate(10.81 124.12) rotate(-30)"/><ellipse class="cls-3" cx="237.23" cy="41.68" rx="24.14" ry="35" transform="translate(82.52 226.29) rotate(-60)"/></g></svg>