<?xml version="1.0" encoding="UTF-8"?><svg id="Layer_3" xmlns="http://www.w3.org/2000/svg" viewBox="0 0 407.33 83"><defs><style>.cls-1{fill:#fff;}.cls-2{stroke:#1c75bc;}.cls-2,.cls-3,.cls-4{fill:none;stroke-miterlimit:10;stroke-width:4px;}.cls-3{stroke:#ed1c24;}.cls-4{stroke:#f1f2f2;}</style></defs><ellipse class="cls-4" cx="237.23" cy="42" rx="24.14" ry="35"/><ellipse class="cls-2" cx="237.02" cy="41.89" rx="35" ry="24.14" transform="translate(10.81 124.12) rotate(-30)"/><ellipse class="cls-3" cx="237.23" cy="41.68" rx="24.14" ry="35" transform="translate(82.52 226.29) rotate(-60)"/><g><path class="cls-1" d="m10.62,71.65V12.34h34.38v5.22H15.75v16.65h19.71v5.22H15.75v27h31.23v5.22H10.62Z"/><path class="cls-1" d="m95.85,12.16v60.39L56.07,25.12v46.53h-5.13V11.35l39.78,47.52V12.16h5.13Z"/><path class="cls-1" d="m125.5,12.34c4.09,0,7.92.78,11.5,2.34,3.58,1.56,6.7,3.69,9.38,6.39,2.67,2.7,4.79,5.85,6.36,9.45,1.56,3.6,2.34,7.44,2.34,11.52s-.78,7.92-2.34,11.52c-1.56,3.6-3.68,6.74-6.36,9.4-2.67,2.67-5.8,4.79-9.38,6.35-3.58,1.56-7.41,2.34-11.5,2.34h-18.4V12.34h18.4Zm24.44,29.7c0-3.36-.65-6.52-1.94-9.5s-3.05-5.56-5.28-7.79c-2.22-2.22-4.83-3.97-7.8-5.26-2.98-1.29-6.15-1.94-9.52-1.94h-13.17v48.87h13.17c3.37,0,6.54-.63,9.52-1.89,2.98-1.26,5.58-3,7.8-5.22,2.22-2.22,3.98-4.8,5.28-7.74,1.29-2.94,1.94-6.12,1.94-9.54Z"/><path class="cls-1" d="m168.66,49.06v22.59h-5.13V12.34h16.97c2.57,0,4.95.51,7.14,1.53,2.18,1.02,4.08,2.38,5.7,4.09,1.62,1.71,2.89,3.66,3.82,5.85.93,2.19,1.39,4.46,1.39,6.79,0,1.8-.24,3.57-.72,5.31-.48,1.74-1.2,3.35-2.16,4.81-.96,1.47-2.12,2.78-3.46,3.92-1.35,1.14-2.87,2.07-4.54,2.79,1.2,1.56,2.41,3.14,3.64,4.73,1.23,1.59,2.44,3.17,3.65,4.73l11.34,14.76h-6.57l-17.46-22.59h-13.59Zm0-31.5v26.28h11.83c1.81,0,3.51-.34,5.1-1.04,1.59-.69,2.96-1.62,4.11-2.79,1.14-1.17,2.05-2.57,2.71-4.19.66-1.62.99-3.33.99-5.13s-.33-3.49-.99-5.08c-.66-1.59-1.57-2.98-2.71-4.19-1.14-1.2-2.51-2.14-4.11-2.83-1.6-.69-3.3-1.03-5.1-1.03h-11.83Z"/><path class="cls-1" d="m320.58,55.14c0,2.77-.58,5.22-1.75,7.35-1.17,2.14-2.76,3.93-4.77,5.37-2.01,1.44-4.35,2.54-7.02,3.29-2.67.75-5.5,1.13-8.5,1.13-1.26,0-2.67-.09-4.23-.27-1.56-.18-3.17-.43-4.82-.76-1.65-.33-3.3-.72-4.95-1.17-1.65-.45-3.23-.94-4.72-1.48l2.16-4.32,2.88.63c.72.18,1.56.39,2.52.63.96.24,1.98.45,3.06.63,1.08.18,2.16.35,3.24.5,1.08.15,2.07.23,2.97.23h3.69c1.98,0,3.87-.27,5.67-.81,1.8-.54,3.39-1.33,4.77-2.38,1.38-1.05,2.47-2.34,3.29-3.87.81-1.53,1.21-3.29,1.21-5.27,0-.84-.21-1.77-.63-2.79-.42-1.02-.87-1.86-1.35-2.52v.09c-.84-1.14-1.79-2.05-2.83-2.75-1.05-.69-2.13-1.21-3.24-1.58-1.11-.36-2.28-.61-3.51-.76-1.23-.15-2.45-.28-3.64-.41-2.04-.12-4.11-.31-6.21-.58-2.1-.27-4.11-1-6.03-2.21v.09c-2.16-1.2-3.95-2.94-5.35-5.22-1.41-2.28-2.12-4.86-2.12-7.74,0-3.96,1.45-7.35,4.37-10.17,2.91-2.82,6.79-4.74,11.65-5.76h-.09c.72-.12,1.79-.25,3.2-.41,1.41-.15,2.98-.22,4.72-.22.96,0,2.07.1,3.33.31,1.26.21,2.57.46,3.92.75,1.35.3,2.68.65,4,1.06,1.32.41,2.52.83,3.6,1.24l-2.07,4.83c-1.56-.54-2.99-1-4.28-1.4-1.29-.39-2.52-.69-3.69-.9-1.17-.21-2.31-.37-3.42-.5-1.11-.12-2.27-.18-3.46-.18-1.86,0-3.77.23-5.72.68-1.95.45-3.73,1.12-5.35,2.02s-2.96,2.07-4,3.51c-1.05,1.44-1.58,3.15-1.58,5.13,0,.66.12,1.37.36,2.12.24.75.57,1.48.99,2.21.42.72.9,1.41,1.44,2.07.54.66,1.11,1.2,1.71,1.62,1.56.96,3.2,1.58,4.92,1.84,1.71.27,3.44.47,5.19.59,2.04.12,4.25.42,6.63.9,2.38.48,4.59,1.35,6.63,2.62,1.08.72,2.06,1.58,2.93,2.57.87.99,1.62,2.06,2.26,3.2.63,1.14,1.13,2.33,1.49,3.56.36,1.23.54,2.45.54,3.65Z"/><path class="cls-1" d="m378.99,64.09c-3.12,2.58-6.42,4.58-9.9,5.98-3.48,1.41-7.14,2.12-10.98,2.12-4.2,0-8.13-.81-11.79-2.43-3.66-1.62-6.86-3.79-9.58-6.52-2.73-2.73-4.88-5.92-6.43-9.58-1.56-3.66-2.34-7.56-2.34-11.7s.78-8.13,2.34-11.79c1.56-3.66,3.7-6.87,6.43-9.63,2.73-2.76,5.92-4.93,9.58-6.52,3.66-1.59,7.59-2.38,11.79-2.38,3.24,0,6.48.6,9.72,1.8,3.24,1.2,6.45,2.94,9.63,5.22l-4.05,3.24c-4.8-3.36-9.9-5.04-15.3-5.04-3.48,0-6.74.66-9.76,1.98-3.03,1.32-5.67,3.1-7.92,5.35-2.25,2.25-4.04,4.91-5.36,8-1.32,3.09-1.98,6.36-1.98,9.84s.66,6.63,1.98,9.66c1.32,3.02,3.11,5.68,5.36,7.95s4.89,4.07,7.92,5.39c3.03,1.32,6.28,1.98,9.76,1.98,3.06,0,6.08-.61,9.04-1.84,2.97-1.23,5.81-2.98,8.51-5.27l3.33,4.23Z"/><path class="cls-1" d="m391.23,12.34v59.31h-5.13V12.34h5.13Z"/></g></svg>