<svg xmlns="http://www.w3.org/2000/svg" xmlns:xlink="http://www.w3.org/1999/xlink" viewBox="0 0 1478 1486"><defs><linearGradient id="uuid-028b0ce1-079e-40c0-ba2c-4a1fa24a5af6" x1="740.2217" y1="1487.5" x2="740.2217" y2="2.45666" gradientUnits="userSpaceOnUse"><stop offset="0" stop-color="#01004a"/><stop offset=".38045" stop-color="#02044d"/><stop offset=".39962" stop-color="#020951"/><stop offset=".56732" stop-color="#0a3874"/><stop offset=".69594" stop-color="#0f568a"/><stop offset=".76927" stop-color="#116193"/><stop offset=".77274" stop-color="#116193"/><stop offset=".90164" stop-color="#1373a1"/><stop offset=".99438" stop-color="#157aa6"/></linearGradient><linearGradient id="uuid-0dac5f04-d6d8-4d7c-b87d-5876bea36590" x1="755.82323" y1="1439.25068" x2="755.82323" y2="702.24791" gradientUnits="userSpaceOnUse"><stop offset="0" stop-color="#0100cb"/><stop offset=".00503" stop-color="#153e9d"/><stop offset=".99438" stop-color="#fff"/></linearGradient><linearGradient id="uuid-644ecfa6-2036-484e-a51a-518cde783f50" x1="747.63115" y1="464.1334" x2="747.63115" y2="758.11137" gradientUnits="userSpaceOnUse"><stop offset="0" stop-color="#0100cb"/><stop offset=".00453" stop-color="#85b6f9"/><stop offset=".00503" stop-color="#94cbff"/><stop offset=".04763" stop-color="#a9d5ff"/><stop offset=".1155" stop-color="#c3e2ff"/><stop offset=".19354" stop-color="#d9ecff"/><stop offset=".28464" stop-color="#eaf5ff"/><stop offset=".39733" stop-color="#f6faff"/><stop offset=".55544" stop-color="#fdfeff"/><stop offset=".99438" stop-color="#fff"/></linearGradient><linearGradient id="uuid-7eef4c29-2793-4707-9fe8-6dd628c9ad9e" x1="1112.06249" y1="1092.11959" x2="355.69652" y2="1092.11959" gradientUnits="userSpaceOnUse"><stop offset="0" stop-color="#0100cb"/><stop offset=".00503" stop-color="#0a006a"/><stop offset=".99438" stop-color="#fff"/></linearGradient></defs><g isolation="isolate"><g id="uuid-6c11245d-214d-4cb8-bf52-3de8099f1efb"><rect x=".02123" y="2.45666" width="1480.40094" height="1485.04334" fill="url(#uuid-028b0ce1-079e-40c0-ba2c-4a1fa24a5af6)" stroke-width="0"/></g><g id="uuid-690ee7af-201d-4655-a72e-ce26ac3517fb"><polygon points="395.2782 757.05577 462.89317 679.0397 515.96224 634.61784 544.26478 631.62142 552.25392 620.50184 599.39327 577.24006 608.59035 560.1448 649.86837 517.32499 684.79204 487.76534 715.03384 486.78083 754.98595 466.95218 769.27949 478.18738 809.18588 494.52544 815.06853 494.65883 831.85164 476.69084 862.92327 485.67448 900.05634 506.38647 918.3691 523.48531 948.96179 561.37875 1005.65931 643.1347 1073.32701 712.48606 1086.97945 731.57686 1102.96381 744.33582 1085.53299 746.3219 1004.05834 739.58701 935.20593 734.90708 802.21279 722.52529 757.23008 727.01522 694.7914 732.62762 648.21582 734.59819 564.99057 740.59725 514.6474 746.34996 480.48015 743.45957 395.90931 761.13866 395.2782 757.05577" fill="#fff" mix-blend-mode="overlay" opacity=".55" stroke-width="0"/></g><g id="uuid-b01c8b75-05be-42b4-92bb-751dfc182add"><path d="m1067.44612,853.23428l20.888-59.09125,7.16143.56124-28.04942,58.53001h0Zm-11.30784-55.99038l11.91199-4.49103,17.70365,1.39016-22.75373,67.09897-6.86191-63.99809h0Zm-8.72748,77.21072l7.82685-70.21823,6.4759,60.39073-14.30274,9.8275h0Zm-14.12413,46.74288l13.80958-44.53298,13.30927-9.14426-27.11885,53.67724h0Zm2.81621,5.98719l4.60317-17.04086,15.42509-30.53524-20.02825,47.5761h0Zm-4.3531,9.81608l-2.89482-3.36285,1.47965-2.96845,6.7189-13.30374-5.30373,19.63504h0Zm-16.52571,24.04188l12.83749-25.81291,3.03783,3.52062-15.87532,22.29229h0Zm-13.90984,51.15973l9.29943-41.86716,18.11268-25.42564-27.41211,67.2928h0Zm-3.67382,8.98435l-14.50308,22.05566,23.40926-62.15179-8.90618,40.09613h0Zm-29.34906,54.90972l12.20132-25.84871,8.67749-13.19328-20.87881,39.04199h0Zm-14.81039,27.53379l-14.08836-22.60783,38.23386-28.55191-24.1455,51.15973h0Zm-10.57159,37.75862l-3.58823-57.3836,13.38082,21.46778-9.79259,35.91581h0Zm-39.49189-30.3804l34.16679-28.52329,3.87407,61.96535-38.04086-33.44207h0Zm17.59091,58.53795l-17.21912-56.02114,37.45469,32.91852-20.23557,23.10262h0Zm-3.73831,13.83858l4.11001-11.76637,13.99535-15.98252-18.10535,27.74889h0Zm-19.08469,49.66835l-16.3471-58.34439,37.6333-2.60998-21.28619,60.95437h0Zm-33.552,33.02623l16.31141-88.49533,16.23271,57.93568-32.54413,30.55966h0Zm-8.3344,34.9692l7.81978-32.23027,1.48672-1.39814-9.3065,33.62841h0Zm-12.65879,45.27299l-14.73884-100.91413,33.54484,23.33205-18.806,77.58208h0Zm-65.99744,41.50138l49.84334-140.77345,15.06046,103.13689-64.9038,37.63656h0Zm-1.30017-61.53503l48.28429-76.07636-47.72599,134.79357-.55829-58.71721h0Zm-44.77476,30.12942l43.14791-28.83878.57535,60.45962-43.72327-31.62084h0Zm9.89476,67.30002l-23.41632-39.84514,56.31278,6.40307-32.89646,33.44207h0Zm-17.27134-11.83092l-5.64179-23.91995,20.09758,34.19485-14.45579-10.2749h0Zm-27.29044-62.08015l18.83528,33.36321,4.87125,20.65754-23.70653-54.02075h0Zm18.58577,16.18335l.16225,13.69512-21.43344-37.97363,21.27119,24.27851h0Zm3.23873-63.79372l-3.13791,61.42028-24.90954-28.42998,28.04745-32.9903h0Zm-44.56252-42.6416l44.36519,40.34703-28.48193,33.49231-15.88326-73.83933h0Zm-11.80104,2.3734l9.85973-3.60666,14.34497,66.69057-24.20471-63.08391h0Zm14.85816,44.17596l-2.43735-7.22763,4.55029,11.85958-2.11294-4.63196h0Zm-25.04317-47.10857l8.47026,3.08316,11.83389,35.10566-20.30415-38.18882h0Zm-9.33787-19.89023l16.05332,20.58572-7.84334-2.85375-8.20998-17.73198h0Zm-16.30496-56.91747l31.52914,73.7747-18.22201-23.36792-13.30713-50.40678h0Zm-15.61735-16.77845l11.25575,6.67546,13.31215,50.42844-24.5679-57.1039h0Zm-18.79374-77.18779l29.21391,81.46127-11.45369-6.79025-17.76022-74.67102h0Zm-7.15355-7.95896l2.59249-4.13007,14.39506,60.51699-16.98754-56.38692h0Zm-14.00189-33.4994l15.98037,27.26123-2.72546,4.34522-13.25491-31.60644h0Zm-16.02479-44.3409l26.08965,58.27266-14.82893-25.29667-11.26072-32.97598h0Zm-22.02174-28.60215l14.78102,12.46908,13.7989,40.41158-28.57992-52.88066h0Zm-14.62877-14.49101l21.26198,13.81705,5.4073,8.68317-26.66928-22.50021h0Zm25.78797,7.60758l-4.07,4.54596-24.81875-16.13307,28.88876,11.58711h0Zm-56.87395-34.95498l49.46592,30.21545-28.53272-11.44365-20.93321-18.7718h0Zm25.40916-6.93362l29.53273,38.56877-59.54863-36.37468,30.0159-2.1941h0Zm-29.69995-13.09424l26.70645,11.66737-28.67856,2.0937,1.97211-13.76107h0Zm-43.98564-74.69474l42.47667,73.67649-1.84053,12.84343-40.63614-86.51992h0Zm6.33149-7.06128l29.66645,66.21735-42.73839-74.12966,13.07194,7.91231h0Zm-14.6316-34.4236l13.52583,31.83375-13.45219-8.14251-.07364-23.69124h0Zm29.83854-2.67002l-11.92676,16.02243-14.47058-14.32929,26.39734-1.69313Zm23.44911-1.97406l27.81029,70.22895-61.96888-51.12105,12.97384-17.42911,21.18475-1.67879Zm-14.00744,73.52935l42.92489.17856-.63111,56.91174-42.29379-57.09029h0Zm.48251,3.40517l40.1144,54.15112-27.57279-12.04667-12.54161-42.10445h0Zm-2.86699-3.88482l10.40009,34.91761-27.04246-60.36194,16.64237,25.44433h0Zm-8.63037-16.189l-12.26711-18.75452-8.82826-20.77798,21.09537,39.53249h0Zm-8.44583-35.05538l60.91673,50.25269-42.51681-.17637-18.39992-50.07632h0Zm12.96833,40.04943l-30.34258-56.86224,14.85393,14.70908,15.48865,42.15316h0Zm74.71632-20.99373l-24.23045,30.40898-28.22212-71.26998,9.55325-.59657,42.89931,41.45757h0Zm21.54215,112.6748l-45.0285-80.56569,24.11968-30.26928,20.90882,110.83498h0Zm21.76875-147.34515l-3.32594,70.23907-37.6476-35.60601,40.97355-34.63306h0Zm1.68758-1.00744l66.30335,1.00026-69.66494,69.98384,3.36159-70.9841h0Zm58.21273,95.98817l-61.01899-23.23592,70.02167-70.34305-9.00268,93.57897h0Zm10.56522-92.72427l20.16407,42.97924-28.86083,47.41828,8.69677-90.39752h0Zm84.78765-6.83038l-63.38488,48.58853-20.67153-44.05907,84.05642-4.52946h0Zm2.14863.42022l10.29146,35.98535-73.02731,12.10549,62.73584-48.09085h0Zm44.07294,32.58229l-32.14106,3.17856-10.01339-35.01161,42.15444,31.83305h0Zm48.14054-29.33633l-45.92477,28.94989-43.23805-32.64977,89.16282,3.69987h0Zm1.8442.77654l-.04284,27.56819-44.85268.73278,44.89552-28.30097h0Zm7.11931,92.23884l-39.28457-2.39563,32.41543-58.81323,6.86915,61.20885h0Zm-5.48242-92.68269l34.78856,8.48168-34.82433,18.95671.03577-27.43838h0Zm6.82622,89.96444l-6.812-60.68614,35.53196-19.34034-28.71996,80.02648h0Zm30.09238-77.74201l5.99705,34.52041-17.22636,12.00807,11.22931-46.52848h0Zm35.8178-28.16617l-28.56273,60.3727-6.22583-35.86912,34.78856-24.50359h0Zm1.30794,1.05759l.62195,36.13161-28.5842,22.99566,27.96225-59.12727h0Zm30.77872,4.66066l-28.54851,29.85047-.62901-36.98203,29.17752,7.13157h0Zm1.87273,1.1214l37.78337,42.92471-49.67023-10.07923,11.88686-32.84548h0Zm59.90841.48876l-20.10215,42.25171-38.49118-43.72996,20.34539-3.50932,38.24793,4.98757Zm4.48263-.03808l-5.68585,52.86232-17.61944-9.45113,20.74585-43.61212,2.55944.20093Zm2.34107,57.00237l-7.88409,52.55002,1.33673-54.32613,6.54736,1.77611h0Zm14.21715-36.18177l-13.78821,34.59647-6.49745-1.76105,20.28565-32.83542h0Zm10.20713-16.516l21.25766,4.78189-42.47248,43.77084,15.98255-40.08392,5.23227-8.46881h0Zm-22.30131,52.03597l44.0879-45.44366-8.42017,75.54157-35.66773-30.09791h0Zm-10.04981,64.52225l9.43511-62.8896,35.59627,30.0348-45.03138,32.8548h0Zm6.80476,37.13765l-6.99776-34.96365,44.04497-32.13559-37.04721,67.09924h0Zm2.30874-.78153l34.088-61.74745-14.34567,46.24533-19.74232,15.50213h0Zm-1.78696,3.49187l19.87809-15.60965-.10008.20074v.00722l-16.88319,33.92246-2.89482-18.52077h0Zm-25.90376,61.36299l24.65288-58.73152,2.87344,18.36296-27.52633,40.36856h0Zm-3.07361,7.41406l28.27689-41.46563-26.3327,69.91718-1.94419-28.45156h0Zm-1.47965,2.36617l2.01574,29.50561-37.65493,28.12171,35.6392-57.62732h0Zm-7.00492,8.2099l-32.23664,52.12061-29.67784,24.77317,61.91448-76.89378h0Zm-18.46275-6.74723l24.20257-2.99707-68.52632,85.10369,44.32375-82.10661h0Zm-49.69894,88.61004l-53.40147-15.3802,100.18403-71.28659-46.78256,86.6668h0Zm.3717,3.63528l17.45496,56.7885-37.61907,2.60994,20.16411-59.39844h0Zm-54.19495-17.42362l53.17993,15.31561-20.41418,60.1369-32.76575-75.45251h0Zm10.70745,94.83372l-10.68598-90.66785,31.8365,73.32297-21.15051,17.34489h0Zm.20732,1.95033l20.72873-17.00064-15.82532,85.89235-4.90341-68.89171h0Zm-1.4725,2.30876l5.07503,71.40852-33.53053-23.31759,28.4555-48.09093h0Zm-64.49492-53.46849l64.05185,50.98761-28.91306,48.87956-35.13879-99.86717h0Zm-4.96771,65.38549l38.86279,36.54671-50.09564,78.93015,11.23285-115.47686h0Zm-2.05858,4.30215l-11.09917,114.0429-42.93995,28.70241,54.03912-142.74531h0Zm-56.45718,144.36584l-11.43728,7.67931,19.61934-53.18893-8.18206,45.50962h0Zm-12.09919,23.65461l-.15937-13.45131,10.81822-7.26347-10.65885,20.71478h0Zm13.13489-21.94813l42.68473,30.86802-55.32781-6.2955,12.64309-24.57251h0Zm-10.00911-56.32228l12.43006,8.11669-15.38718,49.76875,2.95712-57.88543h0Zm-18.53648-137.76207l26.40263,30.91095-8.78106,98.08909-17.62157-129.00004h0Zm-10.19138,63.18426l8.96625-60.05082,17.2856,126.54778-26.25186-66.49696h0Zm-.99068,1.95029l26.91512,68.18191-43.73827-39.78055,16.82316-28.40136h0Zm-36.44472-50.31369l35.61127,48.50682-16.7195,28.22924-18.89177-76.73606h0Zm.21229,7.72242l17.39066,70.63412-9.84682,3.59948-7.54384-74.2336h0Zm-2.74261-10.78404l8.21997,80.88762-35.75987-83.66964,27.5399,2.78202h0Zm-37.40247-100.35491l36.91856,98.65557-27.60708-2.78924-9.31147-95.86633h0Zm-2.14365-5.13384l9.25354,95.27114-32.42895-90.42413,23.17542-4.84701h0Zm-19.59801-65.14181l19.27918,63.52851-23.06966,4.82557,3.79048-68.35407h0Zm-1.41447-4.08701l-3.88489,70.05338-37.36673-83.46171,41.25163,13.40834h0Zm-32.38689-25.96341l5.98343,4.12285-16.01397,6.06601-7.04994-11.32186,17.08047,1.133h0Zm-3.23084-1.85716l-13.65663-.90346,3.77334-4.2162,9.88329,5.11966h0Zm-1.20297-2.47375l-8.32795-4.30929-21.4142-27.97121,29.74214,32.28049h0Zm1.2945-1.01099l-41.81485-45.38769.61828-55.786,41.19657,101.17369h0Zm2.07786.75287l-38.26737-93.97477,41.11935,73.57535-2.85198,20.39942h0Zm29.57915-31.87896l-25.25686,10.18177-20.75587-110.0239,46.01272,99.84213h0Zm-.46026-4.91156l-45.06785-97.79438,36.31742,34.34763,8.75043,63.44676h0Zm2.17437,3.77152l-9.1514-66.35779,60.60576,23.0796-51.45435,43.27819h0Zm38.25594,82.57265l-18.20413-40.46182,31.5127-79.67147-13.30857,120.13328h0Zm54.38927-61.95822l-52.79531,62.44584,13.7581-124.19465,39.03721,61.74881h0Zm-.08145-3.19786l-38.54754-60.97441,29.37616-48.26511,9.17139,109.23952h0Zm13.31429-92.63757l-12.02555,88.4071-8.87477-105.70534,20.90031,17.29823h0Zm.95495-1.34013l-20.92387-17.31679,70.97161-11.76501-50.04773,29.0818h0Zm49.47875,29.12915l-47.93196-28.1274,51.87326-30.14307-3.9413,58.27047h0Zm1.77191-1.93374l3.86059-57.07309,32.59207-3.22303-36.45266,60.29612h0Zm51.29154-.62311l-50.82543,3.02294,37.1945-61.52579,13.63093,58.50285h0Zm-12.25856-59.84658l46.1607-.75422-32.57274,59.09647-13.58796-58.34224h0Zm34.48116,99.61067l-71.37834,49.16643,50.16352-86.52132,21.21482,37.3549h0Zm1.05787-1.46276l-20.80019-36.62562,38.76986,2.36403-17.96967,34.26159h0Zm34.55262-61.22321l-20.42849,73.03977,5.95412-46.56507,14.47437-26.4747h0Zm1.94428-6.98312l-12.88757,23.58157,21.96529-61.18881-9.07772,37.60724h0Zm-20.50728,79.44923l21.98684-78.64337,16.82604-11.73332-38.81288,90.37669h0Zm34.93872-76.97046l5.88981-13.91818,23.93095-19.88817-29.82076,33.80636h0Zm32.81566-6.66259l-39.89919,23.41448,5.06788-11.98654,38.36239-43.4883-3.53108,32.06036h0Zm21.43645-31.20066l-19.49217,28.53116,3.40238-30.93537,16.08979,2.40421h0Zm.87193-1.53156l-15.98962-2.39055,27.11894-28.36416-11.12932,30.75471h0Zm50.16365,32.94658l-70.15613-.52341,20.76459-30.39611,49.39154,30.91953h0Zm2.10858-.61952l-47.4545-29.70928,47.88336,9.71792-.42885,19.99137h0Zm6.5402,104.39461l-32.72273-64.10352,26.29692-36.49441,6.42581,100.59793h0Zm-4.90332-104.38814l.41454-19.31163,16.91896,9.07468-17.33351,10.23695h0Zm16.61872,53.37396l-16.49011-51.54271,18.01976-10.64273-1.52965,62.18544h0Zm-9.39942,53.1151l10.04981-44.31513,6.6833,33.36614-16.73311,10.94899h0Zm-.7934-3.91506l-6.03291-94.55552,16.08263,50.26774-10.04973,44.28778h0Zm.28593,6.20946l16.35426-10.70518-25.0389,59.64216,8.68464-48.93697h0Zm-2.30167,3.62106l-9.1778,51.67597-24.34549,3.01143,33.52329-54.6874h0Zm-37.91216,22.06993l36.91153-23.57575-33.552,54.74495-3.35954-31.1692h0Zm-41.21437-21.04463l39.57033,21.1522,3.33816,30.90381-42.90849-52.05602h0Zm-3.05214-1.12573l45.87477,55.6555-101.32051,72.09684,55.44574-127.75233h0Zm-58.61942,23.97015l56.83246-23.97015-54.83819,126.35421-1.99427-102.38406h0Zm.60764,107.72587l11.10053,94.23862-64.47346-51.32464,53.37293-42.91399h0Zm-54.10923,47.02253l34.19527,97.1999-37.83346-35.57879,3.63818-61.62111h0Zm-47.68603,147.80042l45.89912-145.36247-3.50241,59.29791-42.3967,86.06456h0Zm-3.23869,10.28929l39.62399-80.43593-47.92336,126.59802,8.29937-46.16209h0Zm-5.51746,4.2878l12.63881-61.44903-8.6832,56.55178-3.95561,4.89725h0Zm-.7455,3.53497l2.98426-3.6927-11.39226,30.88228,8.408-27.18959h0Zm-1.9914-18.0834l15.50863-55.67698-14.03256,68.22488-1.47607-12.5479h0Zm-1.48606,1.39821l1.72265,14.6416-11.6624-7.6148,9.93974-7.02679h0Zm-.17791-1.8786l-10.24858,7.23476,8.04202-89.82894,2.20656,82.59418h0Zm-7.26506-191.10158l21.19615,85.21126-14.96251,7.85866-6.23364-93.06991h0Zm-1.95353-4.66066l6.47166,96.62633-26.54136-31.07585,20.0697-65.55048h0Zm-24.3598,11.90978l23.45633-14.5556-19.6001,64.01599-3.85623-49.46039h0Zm-24.79729,12.79893l27.31474,41.22173-9.06066,60.68903-18.25408-101.91076h0Zm-6.42804,25.66232l22.6515,77.05155-35.33106-48.11955,12.67956-28.932h0Zm-27.61716-88.91109l26.89592,86.47318-12.45654,28.42289-14.43938-114.89608h0Zm-2.58394-7.42124l14.89537,118.52422-36.91786-98.64826,22.02249-19.87596h0Zm-.55319-1.7137l-22.02393,19.87592-19.48789-64.21674,41.51182,44.34082h0Zm4.04635-11.39354l25.27121,40.90633-27.45133-29.91436-9.60307-22.31378,11.7832,11.32181h0Zm27.35051-8.64737l-37.39963-5.37051,51.83967-61.3271-14.44004,66.69762h0Zm44.46026-18.48484l-42.68691,18.03316,14.51368-67.02755,28.17323,48.99439h0Zm-.08006-3.42736l-27.59421-47.99058,12.16415-89.42877,15.43006,137.41935h0Zm1.6032-.40158l-15.95895-142.12947,48.3287,28.36127-32.36975,113.7682h0Zm1.21305,1.72801l31.34181-110.15511.59542,81.64622-31.93723,28.50889h0Zm43.97129,86.80312l-16.97681-74.42008,78.43255-88.3303-61.45574,162.75038h0Zm74.7507-145.39845l-27.00455,69.50843,16.44003-88.35183,10.56452,18.8434h0Zm.40032-2.62429l-10.42876-18.59968,16.94043-32.28688-6.51167,50.88656h0Zm-42.24375,166.68684l52.85111-120.30243,1.99427,102.36962-54.84539,17.93281h0Zm-.62186,1.93602l52.27925-17.10099-50.59957,40.68396-1.67968-23.58297h0Zm-1.32953,4.4169l1.4725,20.6862-41.02433,129.93205,39.55183-150.61826h0Zm-34.39395,94.09521l29.40473-81.54727-40.65184,154.79855,11.24711-73.25128h0Zm-3.03923-36.88382l5.34727-17.75351-3.9163,54.29318-17.91248,64.30278,16.48152-100.84244h0Zm-6.96844,18.01889l-12.17562,87.49861-2.30948-86.44465,14.4851-1.05396h0Zm.16871-1.65633l-11.62527.83891,11.889-6.23813-.26372,5.39922h0Zm3.17076-4.32368l-5.74113,35.13424,4.15647-29.8713,1.58466-5.26294h0Zm-1.24376-1.54876l.03791-.7744,3.035-9.42172-3.07291,10.19612h0Zm27.68286-91.97289l-26.42767,82.07077,10.63241-79.27435,15.79526-2.79642h0Zm24.81588-60.19424l-24.20187,58.41603-15.42649,2.73191,39.62836-61.14793h0Zm3.41669-8.28885l-41.29665,63.72203,58.02976-153.67281-16.73311,89.95078h0Zm-3.75977,18.75023l.57186-6.73288,4.71756-11.39354.00707-.00705v-.00722l15.21071-39.16387,23.58071,1.62757-44.0879,55.67698h0Zm-.26447,2.9685l42.65118-53.84858-50.25649,114.39424,7.60531-60.54566h0Zm-3.42384.58088l2.18719-5.28452-.32877,3.92933-1.85842,1.35519h0Zm-15.35354,37.05582l14.1528-34.15196,2.79479-2.03628-7.68401,61.16225-9.26357-24.974h0Zm-22.85877,95.14208l2.12428-29.44823,2.55396-8.47524-4.67825,37.92348h0Zm7.47233-47.20183l11.92481-39.57972,2.53952-6.13064,9.70682,26.17142-33.07664,91.74348,8.90548-72.20454h0Zm-25.08462-73.43767l17.66869,36.84794-10.76813,80.29252-6.90056-117.14046h0Zm-1.68688-.76722l6.93123,117.67096-21.37842-85.94259,14.44719-31.72837h0Zm-58.04185-6.74723l57.42998,4.13003-14.98969,32.92583-42.44029-37.05586h0Zm-6.93773,32.82539l47.27297,6.08754-23.26337,14.4409-24.00961-20.52844h0Zm23.20046,22.68669l3.9006,50.03404-27.35981-41.29342,23.45921-8.74063h0Zm-24.70868,13.00689l16.36429,91.36335-20.30053-69.04957,3.93624-22.31378h0Zm-.8591-4.54592l-4.13723,23.43951-25.78435-82.90246,29.92158,59.46294h0Zm-.09506-3.84329l-30.17462-59.96483,29.20108,31.82163.97354,28.1432h0Zm24.80157-6.04452l-23.07324,8.58995-1.00927-29.18294,24.08251,20.59299h0Zm-18.77237-54.42228l-6.51459,29.63475-18.00964-34.03726,24.52423,4.4025h0Zm-20.43569-8.68312l12.20991-14.20427,34.84357-14.71337-47.05349,28.91764h0Zm21.92171,9.55792l42.03783,36.69735-48.7254-6.28115,6.68757-30.4162h0Zm-.8242-2.42351l-22.88591-4.10863,54.59305-33.55673-31.70714,37.66536h0Zm61.19485-31.22648l-57.62019,29.52705,32.30034-38.36794,25.31985,8.84089h0Zm1.43096-1.2404l-25.4277-8.87678,31.54699-28.1576-6.11929,37.03437h0Zm-2.02638,36.86934l-57.28998-4.11567,59.07406-30.28001-1.78408,34.39568h0Zm3.18865-29.84254l14.73456,64.59682-16.31927-34.03726,1.5847-30.55957h0Zm-91.39512,23.83382l-5.01998-8.12382.96145.92503,4.05853,7.19879h0Zm-19.09045-24.93803l35.71484,5.12666-14.21134,16.52747-21.5035-21.65413h0Zm215.55948-87.41257l-1.99427,50.98052-23.78087-1.63484,6.89768-17.76786h0l7.88409-18.62843,10.99338-12.94939h0Zm-.11439-2.40919l-8.74179,10.30365,6.06851-14.34768,2.67328,4.04403h0Zm.38601-2.38771l-2.28736-3.47047,3.09507-7.3208-.80771,10.79127h0Zm34.59555,2.8179l-35.15319,51.04503,1.98721-50.60043,33.16598-.4446h0Zm5.98274-45.94555l-38.94141,43.24957,1.1651-15.6283,12.07271-28.54766,25.7036.92639h0Zm1.30087-1.59825l-26.31839-.94862,2.98783-7.0562,39.69188-23.28975-16.36132,31.29458h0Zm26.63285,17.27959l-25.07467-16.71451,16.46873-31.51042,8.60594,48.22494h0Zm36.82567-11.71617l-35.04587,12.37083-8.79903-49.29763,43.8449,36.9268h0Zm1.47965-.90057l-44.25944-37.27525,70.73489.5277-26.47544,36.74754h0Zm.78624,4.2527l33.0372,64.72794-38.36239,24.50792,5.32519-89.23586h0Zm-21.92245,41.20956l20.22842-40.33123-5.11081,85.63288-15.11761-45.30165h0Zm-1.24372,1.43401l15.49646,46.45609-40.80698-21.81194,25.31052-24.64415h0Zm-46.56827-3.91489l45.03862,3.11182-25.05312,24.39321-19.9855-27.50503h0Zm-1.67964.48035l20.28548,27.92097-55.68874,23.48975,35.40326-51.41072h0Zm-.73625-2.23712l-32.94436.4446,38.69125-42.96996-5.74689,42.52537h0Zm1.80842-1.15444l5.73973-42.48226,25.2819,16.84935-31.02163,25.63291h0Zm33.53769-25.23567l34.51685-12.18584-20.5071,40.89915-14.00974-28.71331h0Zm12.63724,29.64539l-45.15283-3.11904,31.09309-25.69825,14.05974,28.81729h0Zm-182.45274-44.29565l51.05416-3.03659-50.44164,86.99817-.61252-83.96158h0Zm.56684,87.44632l69.15031-47.63203-75.28819,84.78102,6.13787-37.14899h0Zm-152.89946,20.37062l27.97739,20.32051,2.03856,1.95746,9.34149,21.70437-40.5597-43.32265,1.20227-.65969h0Zm-7.87903-5.72902h0l1.20367.87479,2.3138,3.84329-39.29666-12.78462,15.52364-5.87957,20.25555,13.94611h0Zm-2.12149-3.44885l-25.55064-17.59587,2.91559-20.86537,22.63505,38.46125h0Zm22.12545-11.20711l-19.27416,12.82042-23.54066-40.00287,42.81482,27.18245h0Zm-17.24708-40.35429l50.68682-42.63066-32.01162,80.93427-18.67521-38.30361h0Zm16.74603,38.08842l-42.955-27.26849,24.79014-9.98816,18.16486,37.25665h0Zm-13.09127,21.58244l-.76125.41593-1.04146-1.72801,1.80271,1.31208h0Zm-4.11145-5.01918h-.00144l-.39814-.28674,19.25911-12.81319,17.91536,39.8163-30.62131-22.24209-.01291-.00713-6.14067-4.46714h0Zm499.04357-200.23707l-8.50637-.53123-6.49004.11225-7.72091-.67349-9.20224,3.38681-.16716-4.69783h-1.64404l.1744,4.86212-21.14336-4.75528.84071-1.36055h-2.98699l-29.32558,49.18899,5.47359-50.85554-20.0151-1.08287-18.38806-1.08399-9.03005-3.81644-16.75987,3.00024,5.65929-8.20793h-2.23012l-5.52353,8.06526-10.4304-13.97014h-2.02996l10.40893,13.93635-28.77013-7.03178.81137-13.63834h-1.63688l-.81835,13.83475-33.93792,23.90131,25.34362-39.7341h-1.95859l-26.77318,41.93401-35.47481-8.64877,51.47167-34.03214h-2.97352l-30.71424,20.2982,26.63285-20.2982h-2.70897l-41.7577,31.84447,14.40587-33.85376h-1.7798l-14.84903,34.8949-32.49407-35.75421-2.06504.05407,32.88646,36.29743-91.31219-3.7895,12.57676-31.70268h-1.18092l-12.83894,30.89463-25.64653-30.59162-1.94261.23623,26.15957,31.20432-83.97566,4.52517,37.23218-34.26572-3.55416,1.48276-36.24838,32.90121-64.43777-.97156,33.65823-12.86339-6.67946.7933-30.36902,11.6062.67612-9.9657h-1.64186l-.62604,9.11887-5.76829-8.52957h-2.16582l5.87195,8.65009-18.63263-7.80823h-4.56176l24.36809,10.02312-41.30952,34.91621-23.8577-41.65606h-1.89917l21.8191,38.17282-39.33948-37.86522-67.14205,5.7538.02238,22.13258-13.74744-21.07916h-1.96853l15.82746,24.21177,30.49054,66.14129.00432.00429.00284.00928,19.57506,40.45897.00428.00713h.00074l.00353.00713.03294.03589.04502.09326.08433.07882.02504.04302.00353.00713,27.71218,24.85216.00929.00713.00925.0144,22.32347,18.83627,30.76284,56.91747,23.04959,52.57943,25.07537,83.23226.01719.02149.00929.05028,11.21352,27.36158.00572.00718.00284.01435,18.71164,42.18974h.00358l.00135.01435,11.35653,24.52236h.00144l.01283.01422.00576.02158,25.99241,48.88682,46.99987,105.94761.02648.0358c.04716.09326.11286.1793.19728.25099l.03359.03589.01784.01435,17.83103,12.67691.03926.01435c.12866.07891.27236.12915.42384.12915l.01008.00713h.00214l.01431-.00713c.13149,0,.25875-.03589.37524-.10039l.02504-.00722.12652-.1147.04075-.0144,34.75056-35.32058,67.2162-38.97757.00715-.00705.05-.03589.02862-.01435.03569-.05015.04293-.03589.08577-.07891.03569-.07882c.03577-.05746.07146-.12193.09301-.18648l.00715-.00713v-.00722h0v-.00713l23.66648-85.56264,30.75708-28.88175.01431-.02875c.07862-.07886.13585-.1649.17154-.25812l.02862-.04293,16.13979-46.2052,28.07664-43.02865.03586-.08604.05-.09326.00715-.00718v-.0214l.00715-.00722,12.63026-43.70274,43.31588-80.99514.01431-.05729.02129-.02158,33.72362-82.80924h.00715l34.55262-82.06639,30.8514-62.98161-10.30408-.75256Z" fill="url(#uuid-0dac5f04-d6d8-4d7c-b87d-5876bea36590)" stroke-width="0"/><path d="m435.06089,706.98343l7.1871,7.64054-43.80114,38.39245,36.61404-46.03299h0Zm23.98103-26.44039l-15.83248,32.7071-7.08209-7.52877,22.91457-25.17833h0Zm3.85126-4.19388l47.87764-34.2924-64.28124,68.18042,16.4036-33.88802h0Zm52.8139-42.2041l.52898,1.97751-29.05528,20.81176,28.5263-22.78927h0Zm13.49508,49.79956l-36.03725,26.61746,23.92671-71.2788,12.11053,44.66134h0Zm3.90208-52.18293l-15.34499,3.71134-.54473-2.03493,15.88972-1.67641h0Zm11.94689-1.19816l14.03479,17.86252-38.79848-11.87319,24.7637-5.98933h0Zm7.18928-9.9222l.64119,10.54032-6.67968-2.13672,6.03849-8.4036h0Zm42.31377-41.3788l-30.27893,55.56447-9.71895-3.10976-.79698-13.09648,40.79485-39.35823h0Zm3.68325-3.33348l32.01733,9.12063-58.34204,52.22022-6.04709-1.93453,32.3718-59.40631h0Zm49.66246-50.35667l-16.55084,58.07975-31.95577-9.1026,48.50661-48.97715h0Zm-38.1015,33.00181l23.13179-20.21868-29.63277,29.92005,6.50098-9.70137h0Zm38.55758-40.26449l.35381,4.07335-26.13611,22.84371,25.7823-26.91707h0Zm17.17981,61.47266l-32.49766,3.92071,16.53727-58.03388,15.96039,54.11317h0Zm7.63031-82.78412l-22.94389,23.86043-.35381-4.07195,23.2977-19.78848h0Zm12.14203-10.25849l18.34779,3.60806-49.44372,28.72836,31.09593-32.33642h0Zm26.51637-.90416l-5.99997,3.2632-13.50651-2.65593,19.50648-.60727h0Zm34.25168-16.75696l-16.44077,57.75572-22.52777-36.5647,38.96854-21.19102h0Zm1.71764-.05234l35.53833,37.16347-52.16997,21.2627,16.63164-58.42618h0Zm6.6039-3.15913l9.3558,7.36745-14.03191-5.74548,4.67611-1.62197h0Zm52.74392,26.90709l-22.23691,12.68991-34.24606-35.81686,56.48297,23.12695h0Zm2.07996.70547l9.78544.22232v.0007l.00707-.0007,7.11931.16131-35.08164,9.98531,18.16983-10.36894h0Zm14.38153-8.24859l-5.00357,6.81752-1.33664-.0309,6.34022-6.78662h0Zm3.38091,7.00745l-6.38306-.14477,9.97129-13.58339-3.58823,13.72816h0Zm6.00403-16.4865l26.86172,13.55101-14.91038,3.40955-.07155.03291-.07146.01575-5.51811,2.41716-7.40515-2.78215v-.0007l-.00715-.0035-.06431-.00937-.09293-.02582-.05008-.00508-.02138-.00061-.02862-.00726-2.94499-.0674,4.32439-16.52449h0Zm29.09899,8.6759l3.52384,3.55729-3.25221.74416-21.03621-10.61341,20.76459,6.31196h0Zm41.4216,53.06643l-56.39637-27.98981,19.7781-19.7455,36.61827,47.73531h0Zm-12.30131-36.85301l-16.28995-5.59703-7.72677-7.80054,24.01672,13.39757h0Zm28.41972,39.84077l-42.12216-42.81145,21.60074,7.42198,20.52141,35.38947h0Zm-2.55898-18.65333l4.4318,18.61535-18.34853-31.63436,13.91673,13.01901h0Zm26.87603,33.11865l-19.64949-9.83328-4.85332-20.40362,24.50281,30.2369h0Zm5.01771,9.64325l-18.51998-14.56344,15.88963,7.94968,2.63036,6.61375h0Zm-26.11823,32.37371l-15.18907-55.38084,41.4216,25.32678-26.23253,30.05405h0Zm57.51872,18.72082l-56.46076-17.44379,26.33261-30.15734,30.12815,47.60113h0Zm16.86888,15.46987l-14.34576-14.54348-30.86431-48.77207-1.64395-4.1257,46.85402,67.44125h0Zm31.17171,33.93537l-100.3485-63.84606,53.75179,16.60694,46.59671,47.23912h0Zm-53.9304-8.92483l-47.53312-53.68657,102.8574,65.44501-55.32428-11.75844h0Zm78.80491,42.49372l-90.44161-23.0782,70.83505-5.05498,19.60656,28.13318h0Zm14.75315,7.93892l-12.2514-7.21612-14.84607-21.29789,27.09748,28.51401h0Zm1.50485,34.33909l-12.87717-39.13384,15.17493,8.93778-.28361,30.19606h-2.01415Zm-45.3184-4.04093l30.65435-35.27707,12.64989,39.318-22.15566-2.02047-21.14858-2.02047Zm-19.13443-1.01023l-2.85506-5.5228,49.19147-27.31654-30.2232,33.84958-16.11321-1.01023Zm-70.35204-10.46671l65.89587,5.36193,2.44201,5.10477-46.32547-4.04093-22.01242-6.42577h0Zm4.15992-12.54575l54.19495,15.64685-63.51559-5.16902,9.32063-10.47783h0Zm-10.34281,9.1671l-3.63822-50.62625,12.79456,40.32978-9.15633,10.29647h0Zm-51.74321-76.78262l46.01063,19.86445,4.00993,55.85051-50.02055-75.71496h0Zm-9.6912,79.51541l8.06862-78.99847,51.37857,77.77431-18.1571,5.2651-41.29009-4.04093Zm-6.88291-.66127l-29.63668-92.7458,43.12296,12.64335-8.84132,80.65148-4.64497-.54903Zm-77.83459-21.81404l46.68972-70.26637,27.95702,92.08041-33.23349-3.41519-41.41325-18.39885h0Zm8.96304,17.87314l-8.2911-15.73931,35.37024,16.26502-18.79874-1.64819-8.2804,1.12248Zm-118.46963,10.14529l107.87695-26.72853,8.27716,17.10896-107.45571,9.01539-8.69841.60419Zm46.51492-56.82705l59.38202,28.89396-113.68561,28.16967,54.30358-57.06364h0Zm-56.91967,57.43222l-40.23446-31.59428,94.36716-25.29019-54.1327,56.88447h0Zm-77.35229,4.71399l-29.30772-7.45658,91.18256,3.9905-61.87484,3.46607Zm-50.35377,4.40348l13.33207-12.12825,30.39725,7.73381-38.80584,3.19833-4.92348,1.1961Zm-3.70343.39287l-12.56874,1.33427,24.30125-11.44978-11.73251,10.11551Zm23.4035-38.54479l-7.26005,24.53588-32.45802,15.29288-4.06789-.21762,43.78596-39.61115h0Zm-45.44025,28.919l39.12516-25.38052-39.38546,35.91875-3.26066-.21088,3.52096-10.32734h0Zm-11.85731,9.93447l-11.35757-.5893,21.16564-8.43734-3.0103,9.22307-6.79776-.19643Zm-5.63343-26.80242l15.37858,16.0269-24.65598,10.03158-1.98566-.04179-18.49102,3.70419,29.75408-29.72088h0Zm-62.03645,36.51189l-4.63071-.78973,62.1125-33.498-27.88497,28.14214-29.59683,6.14559Zm15.89433-36.6711l69.80363-74.03785-24.24545,72.22734-45.55817,1.81051h0Zm62.7194,15.06471l-15.32641-15.97176,35.2031-26.00144-19.87669,41.9732h0Zm46.40449-29.50491l-44.19439,28.66884,20.16407-42.57906,24.03033,13.91022h0Zm-23.99028-16.72528l-12.18422-44.93312,41.51391,12.70357-29.32969,32.22955h0Zm52.06195-40.19928l-20.9603,6.60876-13.97401-17.78436,34.93431,11.1756h0Zm17.85101-4.93533l-15.11765,4.08491-11.60952-3.71423,54.90969-49.14853-28.18252,48.77785h0Zm16.03622.82959l-10.83331-2.14679h-.02212l-.03076-.00788-.09934.00429-.07076-.00998-.01579.00429-.05576.01147-.04502.00788-.03281.00219-2.58826.69908,26.77433-46.34073-12.98041,47.77618h0Zm46.52883-20.11111l-35.75424,22.24643-9.16349-1.8155,14.22421-52.35002,30.69351,31.91909h0Zm.58896-1.75458l-29.96159-31.1576,32.07453-3.86977-2.11294,35.02737h0Zm3.13721-38.35656l-16.21273-54.97077,53.67597-31.18762-37.46324,86.15839h0Zm26.72359-7.7187l12.93901-78.11138,22.49641,36.51385-35.43541,41.59753h0Zm52.92044-12.31144l-24.50778,13.43932,8.408-40.4209,16.09978,26.98158h0Zm1.20301-1.18232l-16.48291-27.62482,51.32439-20.91855-34.84148,48.54336h0Zm39.85203-33.93038l-35.24385,30.32233,32.14887-44.78826,3.09498,14.46593h0Zm1.44388-1.07186l-3.16649-14.79661,41.35742-11.7707-38.19093,26.56731h0Zm22.773,24.7344l-22.06537-23.22875,40.36382-28.07725-18.29845,51.30599h0Zm32.98013-36.88234l-30.44986,34.65529,17.69814-49.60306,12.75172,14.94777h0Zm21.27197,44.07412l-28.09828-6.93148,8.1701-34.6854,19.92817,41.61687h0Zm1.90135.17208l-20.32134-42.44497,56.79669,28.18771-36.47535,14.25727h0Zm1.2151,1.28709l36.7399-14.35775,15.23915,55.5551-51.97905-41.19735h0Zm86.11705,116.24921l-72.95794-70.31732,39.75627-1.69138,33.20167,72.0087h0Zm2.79492,2.13961l-32.40827-70.28432,47.41158,53.54748-15.0033,16.73683h0Zm1.74403.51265l14.646-16.34392,53.88747,11.45306-68.53347,4.89086h0Zm.18585,2.36044l93.13636,23.76582-51.61451,28.66237-41.52185-52.42818h0Zm37.8407,51.62512l-58.43357-16.87093-14.04552-44.25189,72.47909,61.12281h0Zm-40.47821-52.31133l38.24093,48.27947-68.26185-57.5671,30.02092,9.28763h0Zm-71.943-69.37001l69.3698,66.85473-30.54985-9.45262-38.81995-57.40211h0Zm-21.0575,10.11284l54.39503,44.95185-43.39449-18.73806-11.00053-26.21379h0Zm-2.46606-1.62976l11.41516,27.19462-41.579-12.19153,30.16384-15.00309h0Zm-24.61004-46.04384l23.90957,44.56034-30.72139,15.27766,6.81182-59.838h0Zm-45.71745,23.76372l44.2022-24.95601-6.91199,60.69971-37.29021-35.74369h0Zm-.68625,1.61471l37.54046,35.98465-46.03209,69.27828,8.49163-105.26293h0Zm-37.90212,45.78283l36.19378-44.97898-8.42724,104.40175-27.76654-59.42277h0Zm-1.20655,1.2877l27.82225,59.53393-58.84463-28.63007,31.02237-30.90386h0Zm-72.77855.33847l54.73811-24.23041-14.85035,53.66075-39.88776-29.43033h0Zm-41.1587,18.00449l31.09519-13.59687.01435-.00648,8.31796-3.63747,38.95855,28.74482-78.38605-11.504h0Zm-2.41741,1.30644l79.8821,11.72343-93.40222,25.03199,13.52012-36.75542h0Zm-14.97468,38.89363l39.73406,31.20206-108.19175-4.73524,68.45769-26.46683h0Zm-63.60288.22372l59.27623-.31335-66.82936,25.83803,7.55313-25.52468h0Zm-1.29306-2.16114l-23.98605-13.88589,28.83584-31.68749-4.84979,45.57338h0Zm62.77162.19291l-61.1784.32341,4.98996-46.88848,56.18844,46.56507h0Zm15.43286-37.37135l-13.11269,35.65047-12.31431-38.82046,25.427,3.16998h0Zm-1.68762-1.86644l-24.14324-3.00937-1.33237-17.12826,25.4756,20.13763h0Zm12.67101-13.356l-10.00841,13.36965-25.92234-20.49045,8.18572,1.62188.0014.00149.00715.00061,27.73648,5.49681h0Zm15.49009-13.74969l-14.28499,12.31416-16.18917-3.20867,33.40118-20.78227-2.92702,11.67678h0Zm24.64643-45.03351l-19.40278,40.51333-3.08861,2.66232,2.82415-11.26514,19.66724-31.91051h0Zm-19.22556,25.21562l1.88848-31.31244,32.53697-74.82953-34.42545,106.14197h0Zm25.87662-39.13232l-24.19471,39.25713,36.15945-111.48815-11.96473,72.23102h0Zm27.44558,1.04175l-30.67423,33.31874,4.72183-33.24767,25.9524-.07107h0Zm1.20943-1.64622l-26.09105.0709,34.50044-40.49967-8.4094,40.42878h0Zm-6.88193,36.35315l8.26146-34.98789,23.57211-12.92659-31.83357,47.91448h0Zm21.37916-11.69035l-20.3699,13.13446,30.83648-46.41382-10.46658,33.27935h0Zm3.01353-4.1229l10.67887-33.95192,35.45893-30.51226-46.1378,64.46418h0Zm43.30737-22.13028l-42.79702,24.2354,49.0013-68.45657-6.20427,44.22117h0Zm1.84402-1.33865l6.20441-44.27561,21.83659,22.99277-28.041,21.28284h0Zm.07866,2.57401l50.12063-4.52937-42.4224,23.94927-7.69824-19.4199h0Zm-1.20083,1.42267l7.54811,19.03268-34.09157,42.3676,26.54346-61.40028h0Zm-45.87342,40.72628l.3317-16.11513,40.27377-22.80503-40.60547,38.92015h0Zm.21949,2.06364l43.32382-41.52803-27.54282,63.70488-15.781-22.17684h0Zm-.74907,1.77532l15.63441,21.97106-29.97943,29.86552,14.34502-51.83658h0Zm-.80199-18.76021l-.33667,16.34173-50.72395,22.4536,51.06062-38.79534h0Zm-22.58148,14.4086l5.97275-3.85121-15.55942,11.82164,9.58667-7.97043h0Zm-1.11004-1.57462l-22.03112-2.85882,30.53777-33.1703-8.50664,36.02912h0Zm-23.1926-1.3516l21.84667,2.8344-33.32252,27.70517-1.43528.6274,12.91113-31.16697h0Zm-19.06397,14.0107l22.18186-46.31623-4.40091,30.98762-17.78094,15.3286h0Zm-3.7469,21.48494l-27.41909,11.99013,9.1785-12.2612,18.2406.27107h0Zm-16.47222-1.88867l36.68982-31.62797-12.48437,30.13519-4.09714,1.79178-20.10831-.29899h0Zm186.18049-78.63111l-49.99918,4.51869,27.59072-20.9385,22.40845,16.41981h0Zm1.60826-17.26742l-.17154,16.28502-21.42929-15.70418,21.60083-.58083h0Zm.1787-1.64989l-22.34415.60166,30.33538-34.52837-7.99123,33.92671h0Zm38.67694,48.52262l-37.39754-29.37948.16447-16.07285,37.23306,45.45233h0Zm3.51668,1.70075l-39.34879-48.02993,27.71218,6.83756,11.63661,41.19237h0Zm-9.49942-39.65652l51.33573,40.69477-39.3631,1.67501-11.97263-42.36979h0Zm47.15426,100.02283l-53.20139-43.96506-22.13683-41.25547,75.33823,85.22053h0Zm-72.79355-84.81835l36.38949,28.58062,36.18959,53.5109-72.57908-82.09151h0Zm-278.06092,77.26884l39.58045-11.66313,1.37233,17.63163-40.95278-5.9685h0Zm41.22371,7.66855l12.42582,39.17319-54.70312-45.3346,42.2773,6.16141h0Zm316.79291-110.96255l15.68231,12.33648-25.81083-15.78173,10.12852,3.44526h0Zm-16.36857-7.30207l-25.3462-35.05826,39.09864,39.7346-13.75243-4.67633h0Zm-57.01831-38.22046l-4.21724,7.42128-11.315-13.25709,15.53224,5.83581h0Zm-1.47241-2.3081l-5.85412-2.19974,2.50174-1.76324,3.35238,3.96298h0Zm9.92836-2.52744l-8.8348,8.81577,2.19444-3.85401,6.64037-4.96176h0Zm-7.14068,3.28464l-4.49602-5.32316,16.74018-3.82968-12.24416,9.15284h0Zm-407.21808,216.14513l44.14361-1.75458-63.55712,34.27743,19.41351-32.52285h0Zm641.7743,14.40291l5.00547,12.06176-10.30195-19.46221,5.29648,7.40045h0Zm-683.4653,22.0101l37.8462-33.17275-18.34138,30.7274-19.87368,6.75252,7.73222-1.19865,9.27519-2.92594-.41864.6449,3.10515-.56124.98675-1.15779,3.55408.47339,23.3076-4.77366,21.14858-4.20931,9.94487-1.72582,35.62529,1.43116,6.92364-.04209,11.49744-1.2207,74.21587-5.55628,26.29586-1.51535,20.81289-.78574,4.19647-.51384,3.05432.59366,5.76757.7263,120.17372-10.68396,11.1554-2.22897,112.00917,9.58015,2.23795-1.73876,6.80394-2.06711-2.77564,3.07734h3.02123l5.41545-4.32426.62701,5.33449,1.8122-.18219-.75948-5.5151,25.13124,7.71776,64.45283,5.05117,55.38402,4.91095-.13146-29.46781,16.39666,29.06082,2.96716-.20803-2.37339-6.52172,5.74242,6.41406,1.36375-.04209-5.59083-7.11481,9.57717,6.82016,1.45378-.11294-15.98436-12.75896-13.65244-19.0908-.00707-.00429-.04302-.04298-.02138-.0337v-.00648l-38.58401-40.60156-.01431-.00359v-.00718l-30.57838-30.99629-41.57185-61.10697-.01431-.01015-.00715-.01646-14.85323-20.07452-.01422-.01365-.00715-.01435-.01431-.01575v-.0014l-29.1489-35.96881-.06431-.05173-.01431-.0309-18.15552-16.98191-.00715-.00219-.03577-.02862-.07146-.04954-.04284-.03659-37.13307-20.71198-.08577-.02652-.07862-.04228-30.07091-9.13927-.01431-.0014-.0144-.00718-.01422-.0007-.07146-.00648-.12861-.01077h-.04293l-.05715.00149-.0144-.0007-.07146.02293-.12861.04306-.08577.03361-.06431.05234-.10017.08534-.00707.00219-.02146.01068-16.78311,17.96799-5.88266-.13339-39.90639-16.33806-14.22203-11.19932-.0715-.03589-.15152-.07737-.1516-.04009-.1479-.01077-.17154.02354-.07866.01015-7.15425,2.48158-.02142.01225-.05933.02713-.0637.02731-31.9522,17.37491-30.03165.93506-.08293.01934-.12722.03011-.17228.07247-.09144.06302-.02932.00937-36.01225,30.58832-.03643.04656-.02509.01147-39.83489,41.58825-.01496.0365-.00148.00219-.07216.07247-11.29785,16.86077-44.85347,43.27316-.00781.01864-.05938.066-.02932.02731-7.98914,11.11958-28.17602,2.97278-.06143.01934-.06509.00429-.00567.00289-.08581.04228-.14153.07098-.06217.0337-.00218.00079-53.92752,43.08103-.01147.01427-.05789.06311-.02574.01147-27.23752,29.92871-.00646.01786-.02858.02433-42.07122,52.89267,5.06996-1.23473,4.84475-4.98066Z" fill="url(#uuid-644ecfa6-2036-484e-a51a-518cde783f50)" stroke-width="0"/><path d="m1067.4776,853.19194l20.888-59.09125,7.16143.56124-28.04942,58.53001h0Zm-11.30784-55.99038l11.91199-4.49103,17.70365,1.39016-22.75373,67.09897-6.86191-63.99809h0Zm-8.72748,77.21072l7.82685-70.21823,6.4759,60.39073-14.30274,9.8275h0Zm-14.12413,46.74288l13.80958-44.53298,13.30927-9.14426-27.11885,53.67724h0Zm2.81621,5.98719l4.60317-17.04086,15.42509-30.53524-20.02825,47.5761h0Zm-4.3531,9.81608l-2.89482-3.36285,1.47965-2.96845,6.7189-13.30374-5.30373,19.63504h0Zm-16.52571,24.04188l12.83749-25.81291,3.03783,3.52062-15.87532,22.29229h0Zm-13.90984,51.15973l9.29943-41.86716,18.11268-25.42564-27.41211,67.2928h0Zm-3.67382,8.98435l-14.50308,22.05566,23.40926-62.15179-8.90618,40.09613h0Zm-29.34906,54.90972l12.20132-25.84871,8.67749-13.19328-20.87881,39.04199h0Zm-14.81039,27.53379l-14.08836-22.60783,38.23386-28.55191-24.1455,51.15973h0Zm-10.57159,37.75862l-3.58823-57.3836,13.38082,21.46778-9.79259,35.91581h0Zm-39.49189-30.3804l34.16679-28.52329,3.87407,61.96535-38.04086-33.44207h0Zm17.59091,58.53795l-17.21912-56.02114,37.45469,32.91852-20.23557,23.10262h0Zm-3.73831,13.83858l4.11001-11.76637,13.99535-15.98252-18.10535,27.74889h0Zm-19.08469,49.66835l-16.3471-58.34439,37.6333-2.60998-21.28619,60.95437h0Zm-33.552,33.02623l16.31141-88.49533,16.23271,57.93568-32.54413,30.55966h0Zm-8.3344,34.9692l7.81978-32.23027,1.48672-1.39814-9.3065,33.62841h0Zm-12.65879,45.27299l-14.73884-100.91413,33.54484,23.33205-18.806,77.58208h0Zm-65.99744,41.50138l49.84334-140.77345,15.06046,103.13689-64.9038,37.63656h0Zm-1.30017-61.53503l48.28429-76.07636-47.72599,134.79357-.55829-58.71721h0Zm-44.77476,30.12942l43.14791-28.83878.57535,60.45962-43.72327-31.62084h0Zm9.89476,67.30002l-23.41632-39.84514,56.31278,6.40307-32.89646,33.44207h0Zm-17.27134-11.83092l-5.64179-23.91995,20.09758,34.19485-14.45579-10.2749h0Zm-27.29044-62.08015l18.83528,33.36321,4.87125,20.65754-23.70653-54.02075h0Zm18.58577,16.18335l.16225,13.69512-21.43344-37.97363,21.27119,24.27851h0Zm3.23873-63.79372l-3.13791,61.42028-24.90954-28.42998,28.04745-32.9903h0Zm-44.56252-42.6416l44.36519,40.34703-28.48193,33.49231-15.88326-73.83933h0Zm-11.80104,2.3734l9.85973-3.60666,14.34497,66.69057-24.20471-63.08391h0Zm14.85816,44.17596l-2.43735-7.22763,4.55029,11.85958-2.11294-4.63196h0Zm-25.04317-47.10857l8.47026,3.08316,11.83389,35.10566-20.30415-38.18882h0Zm-9.33787-19.89023l16.05332,20.58572-7.84334-2.85375-8.20998-17.73198h0Zm-16.30496-56.91747l31.52914,73.7747-18.22201-23.36792-13.30713-50.40678h0Zm-15.61735-16.77845l11.25575,6.67546,13.31215,50.42844-24.5679-57.1039h0Zm-18.79374-77.18779l29.21391,81.46127-11.45369-6.79025-17.76022-74.67102h0Zm-7.15355-7.95896l2.59249-4.13007,14.39506,60.51699-16.98754-56.38692h0Zm-14.00189-33.4994l15.98037,27.26123-2.72546,4.34522-13.25491-31.60644h0Zm-16.02479-44.3409l26.08965,58.27266-14.82893-25.29667-11.26072-32.97598h0Zm-22.02174-28.60215l14.78102,12.46908,13.7989,40.41158-28.57992-52.88066h0Zm-14.62877-14.49101l21.26198,13.81705,5.4073,8.68317-26.66928-22.50021h0Zm25.78797,7.60758l-4.07,4.54596-24.81875-16.13307,28.88876,11.58711h0Zm-56.87395-34.95498l49.46592,30.21545-28.53272-11.44365-20.93321-18.7718h0Zm25.40916-6.93362l29.53273,38.56877-59.54863-36.37468,30.0159-2.1941h0Zm-29.69995-13.09424l26.70645,11.66737-28.67856,2.0937,1.97211-13.76107h0Zm-43.98564-74.69474l42.47667,73.67649-1.84053,12.84343-40.63614-86.51992h0Zm6.33149-7.06128l29.66645,66.21735-42.73839-74.12966,13.07194,7.91231h0Zm-14.6316-34.4236l13.52583,31.83375-13.45219-8.14251-.07364-23.69124h0Zm29.83854-2.67002l-11.92676,16.02243-14.47058-14.32929,26.39734-1.69313Zm23.44911-1.97406l27.81029,70.22895-61.96888-51.12105,12.97384-17.42911,21.18475-1.67879Zm-14.00744,73.52935l42.92489.17856-.63111,56.91174-42.29379-57.09029h0Zm.48251,3.40517l40.1144,54.15112-27.57279-12.04667-12.54161-42.10445h0Zm-2.86699-3.88482l10.40009,34.91761-27.04246-60.36194,16.64237,25.44433h0Zm-8.63037-16.189l-12.26711-18.75452-8.82826-20.77798,21.09537,39.53249h0Zm-8.44583-35.05538l60.91673,50.25269-42.51681-.17637-18.39992-50.07632h0Zm12.96833,40.04943l-30.34258-56.86224,14.85393,14.70908,15.48865,42.15316h0Zm74.71632-20.99373l-24.23045,30.40898-28.22212-71.26998,9.55325-.59657,42.89931,41.45757h0Zm21.54215,112.6748l-45.0285-80.56569,24.11968-30.26928,20.90882,110.83498h0Zm21.76875-147.34515l-3.32594,70.23907-37.6476-35.60601,40.97355-34.63306h0Zm1.68758-1.00744l66.30335,1.00026-69.66494,69.98384,3.36159-70.9841h0Zm58.21273,95.98817l-61.01899-23.23592,70.02167-70.34305-9.00268,93.57897h0Zm10.56522-92.72427l20.16407,42.97924-28.86083,47.41828,8.69677-90.39752h0Zm84.78765-6.83038l-63.38488,48.58853-20.67153-44.05907,84.05642-4.52946h0Zm2.14863.42022l10.29146,35.98535-73.02731,12.10549,62.73584-48.09085h0Zm44.07294,32.58229l-32.14106,3.17856-10.01339-35.01161,42.15444,31.83305h0Zm48.14054-29.33633l-45.92477,28.94989-43.23805-32.64977,89.16282,3.69987h0Zm1.8442.77654l-.04284,27.56819-44.85268.73278,44.89552-28.30097h0Zm7.11931,92.23884l-39.28457-2.39563,32.41543-58.81323,6.86915,61.20885h0Zm-5.48242-92.68269l34.78856,8.48168-34.82433,18.95671.03577-27.43838h0Zm6.82622,89.96444l-6.812-60.68614,35.53196-19.34034-28.71996,80.02648h0Zm30.09238-77.74201l5.99705,34.52041-17.22636,12.00807,11.22931-46.52848h0Zm35.8178-28.16617l-28.56273,60.3727-6.22583-35.86912,34.78856-24.50359h0Zm1.30794,1.05759l.62195,36.13161-28.5842,22.99566,27.96225-59.12727h0Zm30.77872,4.66066l-28.54851,29.85047-.62901-36.98203,29.17752,7.13157h0Zm1.87273,1.1214l37.78337,42.92471-49.67023-10.07923,11.88686-32.84548h0Zm59.90841.48876l-20.10215,42.25171-38.49118-43.72996,20.34539-3.50932,38.24793,4.98757Zm4.48263-.03808l-5.68585,52.86232-17.61944-9.45113,20.74585-43.61212,2.55944.20093Zm2.34107,57.00237l-7.88409,52.55002,1.33673-54.32613,6.54736,1.77611h0Zm14.21715-36.18177l-13.78821,34.59647-6.49745-1.76105,20.28565-32.83542h0Zm10.20713-16.516l21.25766,4.78189-42.47248,43.77084,15.98255-40.08392,5.23227-8.46881h0Zm-22.30131,52.03597l44.0879-45.44366-8.42017,75.54157-35.66773-30.09791h0Zm-10.04981,64.52225l9.43511-62.8896,35.59627,30.0348-45.03138,32.8548h0Zm6.80476,37.13765l-6.99776-34.96365,44.04497-32.13559-37.04721,67.09924h0Zm2.30874-.78153l34.088-61.74745-14.34567,46.24533-19.74232,15.50213h0Zm-1.78696,3.49187l19.87809-15.60965-.10008.20074v.00722l-16.88319,33.92246-2.89482-18.52077h0Zm-25.90376,61.36299l24.65288-58.73152,2.87344,18.36296-27.52633,40.36856h0Zm-3.07361,7.41406l28.27689-41.46563-26.3327,69.91718-1.94419-28.45156h0Zm-1.47965,2.36617l2.01574,29.50561-37.65493,28.12171,35.6392-57.62732h0Zm-7.00492,8.2099l-32.23664,52.12061-29.67784,24.77317,61.91448-76.89378h0Zm-18.46275-6.74723l24.20257-2.99707-68.52632,85.10369,44.32375-82.10661h0Zm-49.69894,88.61004l-53.40147-15.3802,100.18403-71.28659-46.78256,86.6668h0Zm.3717,3.63528l17.45496,56.7885-37.61907,2.60994,20.16411-59.39844h0Zm-54.19495-17.42362l53.17993,15.31561-20.41418,60.1369-32.76575-75.45251h0Zm10.70745,94.83372l-10.68598-90.66785,31.8365,73.32297-21.15051,17.34489h0Zm.20732,1.95033l20.72873-17.00064-15.82532,85.89235-4.90341-68.89171h0Zm-1.4725,2.30876l5.07503,71.40852-33.53053-23.31759,28.4555-48.09093h0Zm-64.49492-53.46849l64.05185,50.98761-28.91306,48.87956-35.13879-99.86717h0Zm-4.96771,65.38549l38.86279,36.54671-50.09564,78.93015,11.23285-115.47686h0Zm-2.05858,4.30215l-11.09917,114.0429-42.93995,28.70241,54.03912-142.74531h0Zm-56.45718,144.36584l-11.43728,7.67931,19.61934-53.18893-8.18206,45.50962h0Zm-12.09919,23.65461l-.15937-13.45131,10.81822-7.26347-10.65885,20.71478h0Zm13.13489-21.94813l42.68473,30.86802-55.32781-6.2955,12.64309-24.57251h0Zm-10.00911-56.32228l12.43006,8.11669-15.38718,49.76875,2.95712-57.88543h0Zm-18.53648-137.76207l26.40263,30.91095-8.78106,98.08909-17.62157-129.00004h0Zm-10.19138,63.18426l8.96625-60.05082,17.2856,126.54778-26.25186-66.49696h0Zm-.99068,1.95029l26.91512,68.18191-43.73827-39.78055,16.82316-28.40136h0Zm-36.44472-50.31369l35.61127,48.50682-16.7195,28.22924-18.89177-76.73606h0Zm.21229,7.72242l17.39066,70.63412-9.84682,3.59948-7.54384-74.2336h0Zm-2.74261-10.78404l8.21997,80.88762-35.75987-83.66964,27.5399,2.78202h0Zm-37.40247-100.35491l36.91856,98.65557-27.60708-2.78924-9.31147-95.86633h0Zm-2.14365-5.13384l9.25354,95.27114-32.42895-90.42413,23.17542-4.84701h0Zm-19.59801-65.14181l19.27918,63.52851-23.06966,4.82557,3.79048-68.35407h0Zm-1.41447-4.08701l-3.88489,70.05338-37.36673-83.46171,41.25163,13.40834h0Zm-32.38689-25.96341l5.98343,4.12285-16.01397,6.06601-7.04994-11.32186,17.08047,1.133h0Zm-3.23084-1.85716l-13.65663-.90346,3.77334-4.2162,9.88329,5.11966h0Zm-1.20297-2.47375l-8.32795-4.30929-21.4142-27.97121,29.74214,32.28049h0Zm1.2945-1.01099l-41.81485-45.38769.61828-55.786,41.19657,101.17369h0Zm2.07786.75287l-38.26737-93.97477,41.11935,73.57535-2.85198,20.39942h0Zm29.57915-31.87896l-25.25686,10.18177-20.75587-110.0239,46.01272,99.84213h0Zm-.46026-4.91156l-45.06785-97.79438,36.31742,34.34763,8.75043,63.44676h0Zm2.17437,3.77152l-9.1514-66.35779,60.60576,23.0796-51.45435,43.27819h0Zm38.25594,82.57265l-18.20413-40.46182,31.5127-79.67147-13.30857,120.13328h0Zm54.38927-61.95822l-52.79531,62.44584,13.7581-124.19465,39.03721,61.74881h0Zm-.08145-3.19786l-38.54754-60.97441,29.37616-48.26511,9.17139,109.23952h0Zm13.31429-92.63757l-12.02555,88.4071-8.87477-105.70534,20.90031,17.29823h0Zm.95495-1.34013l-20.92387-17.31679,70.97161-11.76501-50.04773,29.0818h0Zm49.47875,29.12915l-47.93196-28.1274,51.87326-30.14307-3.9413,58.27047h0Zm1.77191-1.93374l3.86059-57.07309,32.59207-3.22303-36.45266,60.29612h0Zm51.29154-.62311l-50.82543,3.02294,37.1945-61.52579,13.63093,58.50285h0Zm-12.25856-59.84658l46.1607-.75422-32.57274,59.09647-13.58796-58.34224h0Zm34.48116,99.61067l-71.37834,49.16643,50.16352-86.52132,21.21482,37.3549h0Zm1.05787-1.46276l-20.80019-36.62562,38.76986,2.36403-17.96967,34.26159h0Zm34.55262-61.22321l-20.42849,73.03977,5.95412-46.56507,14.47437-26.4747h0Zm1.94428-6.98312l-12.88757,23.58157,21.96529-61.18881-9.07772,37.60724h0Zm-20.50728,79.44923l21.98684-78.64337,16.82604-11.73332-38.81288,90.37669h0Zm34.93872-76.97046l5.88981-13.91818,23.93095-19.88817-29.82076,33.80636h0Zm32.81566-6.66259l-39.89919,23.41448,5.06788-11.98654,38.36239-43.4883-3.53108,32.06036h0Zm21.43645-31.20066l-19.49217,28.53116,3.40238-30.93537,16.08979,2.40421h0Zm.87193-1.53156l-15.98962-2.39055,27.11894-28.36416-11.12932,30.75471h0Zm50.16365,32.94658l-70.15613-.52341,20.76459-30.39611,49.39154,30.91953h0Zm2.10858-.61952l-47.4545-29.70928,47.88336,9.71792-.42885,19.99137h0Zm6.5402,104.39461l-32.72273-64.10352,26.29692-36.49441,6.42581,100.59793h0Zm-4.90332-104.38814l.41454-19.31163,16.91896,9.07468-17.33351,10.23695h0Zm16.61872,53.37396l-16.49011-51.54271,18.01976-10.64273-1.52965,62.18544h0Zm-9.39942,53.1151l10.04981-44.31513,6.6833,33.36614-16.73311,10.94899h0Zm-.7934-3.91506l-6.03291-94.55552,16.08263,50.26774-10.04973,44.28778h0Zm.28593,6.20946l16.35426-10.70518-25.0389,59.64216,8.68464-48.93697h0Zm-2.30167,3.62106l-9.1778,51.67597-24.34549,3.01143,33.52329-54.6874h0Zm-37.91216,22.06993l36.91153-23.57575-33.552,54.74495-3.35954-31.1692h0Zm-41.21437-21.04463l39.57033,21.1522,3.33816,30.90381-42.90849-52.05602h0Zm-3.05214-1.12573l45.87477,55.6555-101.32051,72.09684,55.44574-127.75233h0Zm-58.61942,23.97015l56.83246-23.97015-54.83819,126.35421-1.99427-102.38406h0Zm.60764,107.72587l11.10053,94.23862-64.47346-51.32464,53.37293-42.91399h0Zm-54.10923,47.02253l34.19527,97.1999-37.83346-35.57879,3.63818-61.62111h0Zm-47.68603,147.80042l45.89912-145.36247-3.50241,59.29791-42.3967,86.06456h0Zm-3.23869,10.28929l39.62399-80.43593-47.92336,126.59802,8.29937-46.16209h0Zm-5.51746,4.2878l12.63881-61.44903-8.6832,56.55178-3.95561,4.89725h0Zm-.7455,3.53497l2.98426-3.6927-11.39226,30.88228,8.408-27.18959h0Zm-1.9914-18.0834l15.50863-55.67698-14.03256,68.22488-1.47607-12.5479h0Zm-1.48606,1.39821l1.72265,14.6416-11.6624-7.6148,9.93974-7.02679h0Zm-.17791-1.8786l-10.24858,7.23476,8.04202-89.82894,2.20656,82.59418h0Zm-7.26506-191.10158l21.19615,85.21126-14.96251,7.85866-6.23364-93.06991h0Zm-1.95353-4.66066l6.47166,96.62633-26.54136-31.07585,20.0697-65.55048h0Zm-24.3598,11.90978l23.45633-14.5556-19.6001,64.01599-3.85623-49.46039h0Zm-24.79729,12.79893l27.31474,41.22173-9.06066,60.68903-18.25408-101.91076h0Zm-6.42804,25.66232l22.6515,77.05155-35.33106-48.11955,12.67956-28.932h0Zm-27.61716-88.91109l26.89592,86.47318-12.45654,28.42289-14.43938-114.89608h0Zm-2.58394-7.42124l14.89537,118.52422-36.91786-98.64826,22.02249-19.87596h0Zm-.55319-1.7137l-22.02393,19.87592-19.48789-64.21674,41.51182,44.34082h0Zm4.04635-11.39354l25.27121,40.90633-27.45133-29.91436-9.60307-22.31378,11.7832,11.32181h0Zm27.35051-8.64737l-37.39963-5.37051,51.83967-61.3271-14.44004,66.69762h0Zm44.46026-18.48484l-42.68691,18.03316,14.51368-67.02755,28.17323,48.99439h0Zm-.08006-3.42736l-27.59421-47.99058,12.16415-89.42877,15.43006,137.41935h0Zm1.6032-.40158l-15.95895-142.12947,48.3287,28.36127-32.36975,113.7682h0Zm1.21305,1.72801l31.34181-110.15511.59542,81.64622-31.93723,28.50889h0Zm43.97129,86.80312l-16.97681-74.42008,78.43255-88.3303-61.45574,162.75038h0Zm74.7507-145.39845l-27.00455,69.50843,16.44003-88.35183,10.56452,18.8434h0Zm.40032-2.62429l-10.42876-18.59968,16.94043-32.28688-6.51167,50.88656h0Zm-42.24375,166.68684l52.85111-120.30243,1.99427,102.36962-54.84539,17.93281h0Zm-.62186,1.93602l52.27925-17.10099-50.59957,40.68396-1.67968-23.58297h0Zm-1.32953,4.4169l1.4725,20.6862-41.02433,129.93205,39.55183-150.61826h0Zm-34.39395,94.09521l29.40473-81.54727-40.65184,154.79855,11.24711-73.25128h0Zm-3.03923-36.88382l5.34727-17.75351-3.9163,54.29318-17.91248,64.30278,16.48152-100.84244h0Zm-6.96844,18.01889l-12.17562,87.49861-2.30948-86.44465,14.4851-1.05396h0Zm.16871-1.65633l-11.62527.83891,11.889-6.23813-.26372,5.39922h0Zm3.17076-4.32368l-5.74113,35.13424,4.15647-29.8713,1.58466-5.26294h0Zm-1.24376-1.54876l.03791-.7744,3.035-9.42172-3.07291,10.19612h0Zm27.68286-91.97289l-26.42767,82.07077,10.63241-79.27435,15.79526-2.79642h0Zm24.81588-60.19424l-24.20187,58.41603-15.42649,2.73191,39.62836-61.14793h0Zm3.41669-8.28885l-41.29665,63.72203,58.02976-153.67281-16.73311,89.95078h0Zm-3.75977,18.75023l.57186-6.73288,4.71756-11.39354.00707-.00705v-.00722l15.21071-39.16387,23.58071,1.62757-44.0879,55.67698h0Zm-.26447,2.9685l42.65118-53.84858-50.25649,114.39424,7.60531-60.54566h0Zm-3.42384.58088l2.18719-5.28452-.32877,3.92933-1.85842,1.35519h0Zm-15.35354,37.05582l14.1528-34.15196,2.79479-2.03628-7.68401,61.16225-9.26357-24.974h0Zm-22.85877,95.14208l2.12428-29.44823,2.55396-8.47524-4.67825,37.92348h0Zm7.47233-47.20183l11.92481-39.57972,2.53952-6.13064,9.70682,26.17142-33.07664,91.74348,8.90548-72.20454h0Zm-25.08462-73.43767l17.66869,36.84794-10.76813,80.29252-6.90056-117.14046h0Zm-1.68688-.76722l6.93123,117.67096-21.37842-85.94259,14.44719-31.72837h0Zm-58.04185-6.74723l57.42998,4.13003-14.98969,32.92583-42.44029-37.05586h0Zm-6.93773,32.82539l47.27297,6.08754-23.26337,14.4409-24.00961-20.52844h0Zm23.20046,22.68669l3.9006,50.03404-27.35981-41.29342,23.45921-8.74063h0Zm-24.70868,13.00689l16.36429,91.36335-20.30053-69.04957,3.93624-22.31378h0Zm-.8591-4.54592l-4.13723,23.43951-25.78435-82.90246,29.92158,59.46294h0Zm-.09506-3.84329l-30.17462-59.96483,29.20108,31.82163.97354,28.1432h0Zm24.80157-6.04452l-23.07324,8.58995-1.00927-29.18294,24.08251,20.59299h0Zm-18.77237-54.42228l-6.51459,29.63475-18.00964-34.03726,24.52423,4.4025h0Zm-20.43569-8.68312l12.20991-14.20427,34.84357-14.71337-47.05349,28.91764h0Zm21.92171,9.55792l42.03783,36.69735-48.7254-6.28115,6.68757-30.4162h0Zm-.8242-2.42351l-22.88591-4.10863,54.59305-33.55673-31.70714,37.66536h0Zm61.19485-31.22648l-57.62019,29.52705,32.30034-38.36794,25.31985,8.84089h0Zm1.43096-1.2404l-25.4277-8.87678,31.54699-28.1576-6.11929,37.03437h0Zm-2.02638,36.86934l-57.28998-4.11567,59.07406-30.28001-1.78408,34.39568h0Zm3.18865-29.84254l14.73456,64.59682-16.31927-34.03726,1.5847-30.55957h0Zm-91.39512,23.83382l-5.01998-8.12382.96145.92503,4.05853,7.19879h0Zm-19.09045-24.93803l35.71484,5.12666-14.21134,16.52747-21.5035-21.65413h0Zm215.55948-87.41257l-1.99427,50.98052-23.78087-1.63484,6.89768-17.76786h0l7.88409-18.62843,10.99338-12.94939h0Zm-.11439-2.40919l-8.74179,10.30365,6.06851-14.34768,2.67328,4.04403h0Zm.38601-2.38771l-2.28736-3.47047,3.09507-7.3208-.80771,10.79127h0Zm34.59555,2.8179l-35.15319,51.04503,1.98721-50.60043,33.16598-.4446h0Zm5.98274-45.94555l-38.94141,43.24957,1.1651-15.6283,12.07271-28.54766,25.7036.92639h0Zm1.30087-1.59825l-26.31839-.94862,2.98783-7.0562,39.69188-23.28975-16.36132,31.29458h0Zm26.63285,17.27959l-25.07467-16.71451,16.46873-31.51042,8.60594,48.22494h0Zm36.82567-11.71617l-35.04587,12.37083-8.79903-49.29763,43.8449,36.9268h0Zm1.47965-.90057l-44.25944-37.27525,70.73489.5277-26.47544,36.74754h0Zm.78624,4.2527l33.0372,64.72794-38.36239,24.50792,5.32519-89.23586h0Zm-21.92245,41.20956l20.22842-40.33123-5.11081,85.63288-15.11761-45.30165h0Zm-1.24372,1.43401l15.49646,46.45609-40.80698-21.81194,25.31052-24.64415h0Zm-46.56827-3.91489l45.03862,3.11182-25.05312,24.39321-19.9855-27.50503h0Zm-1.67964.48035l20.28548,27.92097-55.68874,23.48975,35.40326-51.41072h0Zm-.73625-2.23712l-32.94436.4446,38.69125-42.96996-5.74689,42.52537h0Zm1.80842-1.15444l5.73973-42.48226,25.2819,16.84935-31.02163,25.63291h0Zm33.53769-25.23567l34.51685-12.18584-20.5071,40.89915-14.00974-28.71331h0Zm12.63724,29.64539l-45.15283-3.11904,31.09309-25.69825,14.05974,28.81729h0Zm-182.45274-44.29565l51.05416-3.03659-50.44164,86.99817-.61252-83.96158h0Zm.56684,87.44632l69.15031-47.63203-75.28819,84.78102,6.13787-37.14899h0Zm-152.89946,20.37062l27.97739,20.32051,2.03856,1.95746,9.34149,21.70437-40.5597-43.32265,1.20227-.65969h0Zm-7.87903-5.72902h0l1.20367.87479,2.3138,3.84329-39.29666-12.78462,15.52364-5.87957,20.25555,13.94611h0Zm-2.12149-3.44885l-25.55064-17.59587,2.91559-20.86537,22.63505,38.46125h0Zm22.12545-11.20711l-19.27416,12.82042-23.54066-40.00287,42.81482,27.18245h0Zm-17.24708-40.35429l50.68682-42.63066-32.01162,80.93427-18.67521-38.30361h0Zm16.74603,38.08842l-42.955-27.26849,24.79014-9.98816,18.16486,37.25665h0Zm-13.09127,21.58244l-.76125.41593-1.04146-1.72801,1.80271,1.31208h0Zm-4.11145-5.01918h-.00144l-.39814-.28674,19.25911-12.81319,17.91536,39.8163-30.62131-22.24209-.01291-.00713-6.14067-4.46714h0Zm499.04357-200.23707l-8.50637-.53123-6.49004.11225-7.72091-.67349-9.20224,3.38681-.16716-4.69783h-1.64404l.1744,4.86212-21.14336-4.75528.84071-1.36055h-2.98699l-29.32558,49.18899,5.47359-50.85554-20.0151-1.08287-18.38806-1.08399-9.03005-3.81644-16.75987,3.00024,5.65929-8.20793h-2.23012l-5.52353,8.06526-10.4304-13.97014h-2.02996l10.40893,13.93635-28.77013-7.03178.81137-13.63834h-1.63688l-.81835,13.83475-33.93792,23.90131,25.34362-39.7341h-1.95859l-26.77318,41.93401-35.47481-8.64877,51.47167-34.03214h-2.97352l-30.71424,20.2982,26.63285-20.2982h-2.70897l-41.7577,31.84447,14.40587-33.85376h-1.7798l-14.84903,34.8949-32.49407-35.75421-2.06504.05407,32.88646,36.29743-91.31219-3.7895,12.57676-31.70268h-1.18092l-12.83894,30.89463-25.64653-30.59162-1.94261.23623,26.15957,31.20432-83.97566,4.52517,37.23218-34.26572-3.55416,1.48276-36.24838,32.90121-64.43777-.97156,33.65823-12.86339-6.67946.7933-30.36902,11.6062.67612-9.9657h-1.64186l-.62604,9.11887-5.76829-8.52957h-2.16582l5.87195,8.65009-18.63263-7.80823h-4.56176l24.36809,10.02312-41.30952,34.91621-23.8577-41.65606h-1.89917l21.8191,38.17282-39.33948-37.86522-67.14205,5.7538.02238,22.13258-13.74744-21.07916h-1.96853l15.82746,24.21177,30.49054,66.14129.00432.00429.00284.00928,19.57506,40.45897.00428.00713h.00074l.00353.00713.03294.03589.04502.09326.08433.07882.02504.04302.00353.00713,27.71218,24.85216.00929.00713.00925.0144,22.32347,18.83627,30.76284,56.91747,23.04959,52.57943,25.07537,83.23226.01719.02149.00929.05028,11.21352,27.36158.00572.00718.00284.01435,18.71164,42.18974h.00358l.00135.01435,11.35653,24.52236h.00144l.01283.01422.00576.02158,25.99241,48.88682,46.99987,105.94761.02648.0358c.04716.09326.11286.1793.19728.25099l.03359.03589.01784.01435,17.83103,12.67691.03926.01435c.12866.07891.27236.12915.42384.12915l.01008.00713h.00214l.01431-.00713c.13149,0,.25875-.03589.37524-.10039l.02504-.00722.12652-.1147.04075-.0144,34.75056-35.32058,67.2162-38.97757.00715-.00705.05-.03589.02862-.01435.03569-.05015.04293-.03589.08577-.07891.03569-.07882c.03577-.05746.07146-.12193.09301-.18648l.00715-.00713v-.00722h0v-.00713l23.66648-85.56264,30.75708-28.88175.01431-.02875c.07862-.07886.13585-.1649.17154-.25812l.02862-.04293,16.13979-46.2052,28.07664-43.02865.03586-.08604.05-.09326.00715-.00718v-.0214l.00715-.00722,12.63026-43.70274,43.31588-80.99514.01431-.05729.02129-.02158,33.72362-82.80924h.00715l34.55262-82.06639,30.8514-62.98161-10.30408-.75256Z" fill="url(#uuid-7eef4c29-2793-4707-9fe8-6dd628c9ad9e)" mix-blend-mode="multiply" stroke-width="0"/></g><g id="uuid-613acf8c-36dc-4d00-a7a0-ce8493a8e5c1"><line x1="29.72995" y1="803.06676" x2="86.12618" y2="793.97466" fill="#fff" stroke="#fff" stroke-miterlimit="10" stroke-width="2"/><line x1="153.0967" y1="783.36721" x2="86.62972" y2="794.47977" fill="#fff" stroke="#fff" stroke-miterlimit="10" stroke-width="2"/><line x1="68.50236" y1="780.3365" x2="86.62972" y2="794.47977" fill="#fff" stroke="#fff" stroke-miterlimit="10" stroke-width="2"/><line x1="160.14623" y1="810.64351" x2="86.62972" y2="794.47977" fill="#fff" stroke="#fff" stroke-miterlimit="10" stroke-width="2"/><line x1="30.23349" y1="803.57188" x2="160.14623" y2="810.64351" fill="#fff" stroke="#fff" stroke-miterlimit="10" stroke-width="2"/><line x1="201.43632" y1="794.47977" x2="160.14623" y2="810.64351" fill="#fff" stroke="#fff" stroke-miterlimit="10" stroke-width="2"/><line x1="151.08255" y1="783.36721" x2="201.43632" y2="794.47977" fill="#fff" stroke="#fff" stroke-miterlimit="10" stroke-width="2"/><line x1="86.62972" y1="794.47977" x2="201.43632" y2="794.47977" fill="#fff" stroke="#fff" stroke-miterlimit="10" stroke-width="2"/><line x1="68.50236" y1="780.3365" x2="153.0967" y2="783.36721" fill="#fff" stroke="#fff" stroke-miterlimit="10" stroke-width="2"/><line x1="250.78302" y1="785.38767" x2="153.0967" y2="783.36721" fill="#fff" stroke="#fff" stroke-miterlimit="10" stroke-width="2"/><line x1="201.43632" y1="794.47977" x2="297.10849" y2="800.54118" fill="#fff" stroke="#fff" stroke-miterlimit="10" stroke-width="2"/><line x1="315.23585" y1="782.35697" x2="297.10849" y2="800.54118" fill="#fff" stroke="#fff" stroke-miterlimit="10" stroke-width="2"/><line x1="250.78302" y1="785.38767" x2="315.23585" y2="782.35697" fill="#fff" stroke="#fff" stroke-miterlimit="10" stroke-width="2"/><line x1="201.43632" y1="794.47977" x2="250.78302" y2="785.38767" fill="#fff" stroke="#fff" stroke-miterlimit="10" stroke-width="2"/><line x1="160.14623" y1="810.64351" x2="297.10849" y2="800.54118" fill="#fff" stroke="#fff" stroke-miterlimit="10" stroke-width="2"/><line x1="250.78302" y1="785.38767" x2="358.54009" y2="766.19323" fill="#fff" stroke="#fff" stroke-miterlimit="10" stroke-width="2"/><line x1="408.89387" y1="764.17277" x2="315.23585" y2="782.35697" fill="#fff" stroke="#fff" stroke-miterlimit="10" stroke-width="2"/><line x1="425.00708" y1="771.2444" x2="408.89387" y2="764.17277" fill="#fff" stroke="#fff" stroke-miterlimit="10" stroke-width="2"/><line x1="358.54009" y1="766.19323" x2="408.89387" y2="764.17277" fill="#fff" stroke="#fff" stroke-miterlimit="10" stroke-width="2"/><line x1="297.10849" y1="800.54118" x2="425.00708" y2="771.2444" fill="#fff" stroke="#fff" stroke-miterlimit="10" stroke-width="2"/><line x1="408.89387" y1="764.17277" x2="297.10849" y2="800.54118" fill="#fff" stroke="#fff" stroke-miterlimit="10" stroke-width="2"/><line x1="373.64623" y1="798.52071" x2="297.10849" y2="800.54118" fill="#fff" stroke="#fff" stroke-miterlimit="10" stroke-width="2"/><line x1="425.00708" y1="771.2444" x2="373.64623" y2="798.52071" fill="#fff" stroke="#fff" stroke-miterlimit="10" stroke-width="2"/><line x1="30.23349" y1="803.57188" x2="-3" y2="791.44907" fill="#fff" stroke="#fff" stroke-miterlimit="10" stroke-width="2"/><line x1="86.62972" y1="794.47977" x2="-1.99292" y2="780.3365" fill="#fff" stroke="#fff" stroke-miterlimit="10" stroke-width="2"/><line x1="68.50236" y1="780.3365" x2="-1.99292" y2="768.2137" fill="#fff" stroke="#fff" stroke-miterlimit="10" stroke-width="2"/><line x1=".02123" y1="780.3365" x2="33.25472" y2="774.2751" fill="#fff" stroke="#fff" stroke-miterlimit="10" stroke-width="2"/><line x1="373.64623" y1="798.52071" x2="494.49528" y2="789.42861" fill="#fff" stroke="#fff" stroke-miterlimit="10" stroke-width="2"/><line x1="523.70047" y1="762.1523" x2="494.49528" y2="789.42861" fill="#fff" stroke="#fff" stroke-miterlimit="10" stroke-width="2"/><line x1="425.00708" y1="771.2444" x2="523.70047" y2="762.1523" fill="#fff" stroke="#fff" stroke-miterlimit="10" stroke-width="2"/><line x1="494.49528" y1="789.42861" x2="425.00708" y2="771.2444" fill="#fff" stroke="#fff" stroke-miterlimit="10" stroke-width="2"/><line x1="480.39623" y1="740.9374" x2="358.54009" y2="766.19323" fill="#fff" stroke="#fff" stroke-miterlimit="10" stroke-width="2"/><line x1="408.89387" y1="764.17277" x2="480.39623" y2="740.9374" fill="#fff" stroke="#fff" stroke-miterlimit="10" stroke-width="2"/><line x1="425.00708" y1="771.2444" x2="519.67217" y2="742.95786" fill="#fff" stroke="#fff" stroke-miterlimit="10" stroke-width="2"/><line x1="408.89387" y1="764.17277" x2="519.67217" y2="742.95786" fill="#fff" stroke="#fff" stroke-miterlimit="10" stroke-width="2"/><line x1="480.39623" y1="740.9374" x2="519.67217" y2="742.95786" fill="#fff" stroke="#fff" stroke-miterlimit="10" stroke-width="2"/><line x1="564.99057" y1="737.90669" x2="519.67217" y2="742.95786" fill="#fff" stroke="#fff" stroke-miterlimit="10" stroke-width="2"/><line x1="523.70047" y1="762.1523" x2="564.99057" y2="737.90669" fill="#fff" stroke="#fff" stroke-miterlimit="10" stroke-width="2"/><line x1="494.49528" y1="789.42861" x2="605.27358" y2="757.10113" fill="#fff" stroke="#fff" stroke-miterlimit="10" stroke-width="2"/><line x1="629.4434" y1="780.3365" x2="605.27358" y2="757.10113" fill="#fff" stroke="#fff" stroke-miterlimit="10" stroke-width="2"/><line x1="523.70047" y1="762.1523" x2="605.27358" y2="757.10113" fill="#fff" stroke="#fff" stroke-miterlimit="10" stroke-width="2"/><line x1="656.63443" y1="732.85553" x2="605.27358" y2="757.10113" fill="#fff" stroke="#fff" stroke-miterlimit="10" stroke-width="2"/><line x1="564.99057" y1="737.90669" x2="605.27358" y2="757.10113" fill="#fff" stroke="#fff" stroke-miterlimit="10" stroke-width="2"/><line x1="656.63443" y1="732.85553" x2="564.99057" y2="737.90669" fill="#fff" stroke="#fff" stroke-miterlimit="10" stroke-width="2"/><line x1="494.49528" y1="789.42861" x2="629.4434" y2="780.3365" fill="#fff" stroke="#fff" stroke-miterlimit="10" stroke-width="2"/><line x1="694.9033" y1="759.1216" x2="629.4434" y2="780.3365" fill="#fff" stroke="#fff" stroke-miterlimit="10" stroke-width="2"/><line x1="605.27358" y1="757.10113" x2="694.9033" y2="759.1216" fill="#fff" stroke="#fff" stroke-miterlimit="10" stroke-width="2"/><line x1="656.63443" y1="732.85553" x2="694.9033" y2="759.1216" fill="#fff" stroke="#fff" stroke-miterlimit="10" stroke-width="2"/><line x1="754.32075" y1="734.87599" x2="656.63443" y2="732.85553" fill="#fff" stroke="#fff" stroke-miterlimit="10" stroke-width="2"/><line x1="694.9033" y1="759.1216" x2="754.32075" y2="734.87599" fill="#fff" stroke="#fff" stroke-miterlimit="10" stroke-width="2"/><line x1="821.79481" y1="757.10113" x2="694.9033" y2="759.1216" fill="#fff" stroke="#fff" stroke-miterlimit="10" stroke-width="2"/><line x1="754.32075" y1="734.87599" x2="821.79481" y2="757.10113" fill="#fff" stroke="#fff" stroke-miterlimit="10" stroke-width="2"/><line x1="656.63443" y1="732.85553" x2="799.63915" y2="720.73272" fill="#fff" stroke="#fff" stroke-miterlimit="10" stroke-width="2"/><line x1="754.32075" y1="734.87599" x2="799.63915" y2="720.73272" fill="#fff" stroke="#fff" stroke-miterlimit="10" stroke-width="2"/><line x1="1448.53859" y1="787.90817" x2="1485.45755" y2="796.50024" fill="#fff" stroke="#fff" stroke-miterlimit="10" stroke-width="2"/><line x1="1441.45906" y1="817.60194" x2="1485.45755" y2="806.60258" fill="#fff" stroke="#fff" stroke-miterlimit="10" stroke-width="2"/><line x1="1399.99326" y1="800.00563" x2="1441.45906" y2="817.60194" fill="#fff" stroke="#fff" stroke-miterlimit="10" stroke-width="2"/><line x1="1450.56131" y1="787.90817" x2="1399.99326" y2="800.00563" fill="#fff" stroke="#fff" stroke-miterlimit="10" stroke-width="2"/><line x1="1485.45755" y1="801.55141" x2="1399.99326" y2="800.00563" fill="#fff" stroke="#fff" stroke-miterlimit="10" stroke-width="2"/><line x1="1491.5" y1="786.39791" x2="1448.53859" y2="787.90817" fill="#fff" stroke="#fff" stroke-miterlimit="10" stroke-width="2"/><line x1="1350.43658" y1="790.10771" x2="1448.53859" y2="787.90817" fill="#fff" stroke="#fff" stroke-miterlimit="10" stroke-width="2"/><line x1="1399.99326" y1="800.00563" x2="1303.91398" y2="806.60425" fill="#fff" stroke="#fff" stroke-miterlimit="10" stroke-width="2"/><line x1="1285.70948" y1="786.8084" x2="1303.91398" y2="806.60425" fill="#fff" stroke="#fff" stroke-miterlimit="10" stroke-width="2"/><line x1="1350.43658" y1="790.10771" x2="1285.70948" y2="786.8084" fill="#fff" stroke="#fff" stroke-miterlimit="10" stroke-width="2"/><line x1="1399.99326" y1="800.00563" x2="1350.43658" y2="790.10771" fill="#fff" stroke="#fff" stroke-miterlimit="10" stroke-width="2"/><line x1="1441.45906" y1="817.60194" x2="1303.91398" y2="806.60425" fill="#fff" stroke="#fff" stroke-miterlimit="10" stroke-width="2"/><line x1="1350.43658" y1="790.10771" x2="1242.22096" y2="769.2121" fill="#fff" stroke="#fff" stroke-miterlimit="10" stroke-width="2"/><line x1="1191.65292" y1="767.01256" x2="1285.70948" y2="786.8084" fill="#fff" stroke="#fff" stroke-miterlimit="10" stroke-width="2"/><line x1="1175.47114" y1="774.71094" x2="1191.65292" y2="767.01256" fill="#fff" stroke="#fff" stroke-miterlimit="10" stroke-width="2"/><line x1="1242.22096" y1="769.2121" x2="1191.65292" y2="767.01256" fill="#fff" stroke="#fff" stroke-miterlimit="10" stroke-width="2"/><line x1="1303.91398" y1="806.60425" x2="1175.47114" y2="774.71094" fill="#fff" stroke="#fff" stroke-miterlimit="10" stroke-width="2"/><line x1="1191.65292" y1="767.01256" x2="1303.91398" y2="806.60425" fill="#fff" stroke="#fff" stroke-miterlimit="10" stroke-width="2"/><line x1="1227.05055" y1="804.40471" x2="1303.91398" y2="806.60425" fill="#fff" stroke="#fff" stroke-miterlimit="10" stroke-width="2"/><line x1="1175.47114" y1="774.71094" x2="1227.05055" y2="804.40471" fill="#fff" stroke="#fff" stroke-miterlimit="10" stroke-width="2"/><line x1="1227.05055" y1="804.40471" x2="1105.68724" y2="794.50679" fill="#fff" stroke="#fff" stroke-miterlimit="10" stroke-width="2"/><line x1="1076.35777" y1="764.81302" x2="1105.68724" y2="794.50679" fill="#fff" stroke="#fff" stroke-miterlimit="10" stroke-width="2"/><line x1="1175.47114" y1="774.71094" x2="1076.35777" y2="764.81302" fill="#fff" stroke="#fff" stroke-miterlimit="10" stroke-width="2"/><line x1="1105.68724" y1="794.50679" x2="1175.47114" y2="774.71094" fill="#fff" stroke="#fff" stroke-miterlimit="10" stroke-width="2"/><line x1="1119.84629" y1="741.71787" x2="1242.22096" y2="769.2121" fill="#fff" stroke="#fff" stroke-miterlimit="10" stroke-width="2"/><line x1="1191.65292" y1="767.01256" x2="1119.84629" y2="741.71787" fill="#fff" stroke="#fff" stroke-miterlimit="10" stroke-width="2"/><line x1="1175.47114" y1="774.71094" x2="1080.40322" y2="743.91741" fill="#fff" stroke="#fff" stroke-miterlimit="10" stroke-width="2"/><line x1="1191.65292" y1="767.01256" x2="1080.40322" y2="743.91741" fill="#fff" stroke="#fff" stroke-miterlimit="10" stroke-width="2"/><line x1="1119.84629" y1="741.71787" x2="1080.40322" y2="743.91741" fill="#fff" stroke="#fff" stroke-miterlimit="10" stroke-width="2"/><line x1="1080.40322" y1="743.91741" x2="1034.89198" y2="738.41856" fill="#fff" stroke="#fff" stroke-miterlimit="10" stroke-width="2"/><line x1="1076.35777" y1="764.81302" x2="1034.89198" y2="738.41856" fill="#fff" stroke="#fff" stroke-miterlimit="10" stroke-width="2"/><line x1="1105.68724" y1="794.50679" x2="994.43754" y2="759.31418" fill="#fff" stroke="#fff" stroke-miterlimit="10" stroke-width="2"/><line x1="970.16488" y1="784.60887" x2="994.43754" y2="759.31418" fill="#fff" stroke="#fff" stroke-miterlimit="10" stroke-width="2"/><line x1="1076.35777" y1="764.81302" x2="994.43754" y2="759.31418" fill="#fff" stroke="#fff" stroke-miterlimit="10" stroke-width="2"/><line x1="942.85813" y1="732.91972" x2="994.43754" y2="759.31418" fill="#fff" stroke="#fff" stroke-miterlimit="10" stroke-width="2"/><line x1="1034.89198" y1="738.41856" x2="994.43754" y2="759.31418" fill="#fff" stroke="#fff" stroke-miterlimit="10" stroke-width="2"/><line x1="1034.89198" y1="738.41856" x2="942.85813" y2="732.91972" fill="#fff" stroke="#fff" stroke-miterlimit="10" stroke-width="2"/><line x1="1105.68724" y1="794.50679" x2="970.16488" y2="784.60887" fill="#fff" stroke="#fff" stroke-miterlimit="10" stroke-width="2"/><line x1="904.42642" y1="761.51372" x2="970.16488" y2="784.60887" fill="#fff" stroke="#fff" stroke-miterlimit="10" stroke-width="2"/><line x1="994.43754" y1="759.31418" x2="904.42642" y2="761.51372" fill="#fff" stroke="#fff" stroke-miterlimit="10" stroke-width="2"/><line x1="942.85813" y1="732.91972" x2="904.42642" y2="761.51372" fill="#fff" stroke="#fff" stroke-miterlimit="10" stroke-width="2"/><line x1="844.75613" y1="735.11926" x2="942.85813" y2="732.91972" fill="#fff" stroke="#fff" stroke-miterlimit="10" stroke-width="2"/><line x1="904.42642" y1="761.51372" x2="844.75613" y2="735.11926" fill="#fff" stroke="#fff" stroke-miterlimit="10" stroke-width="2"/><line x1="821.79481" y1="757.10113" x2="904.42642" y2="761.51372" fill="#fff" stroke="#fff" stroke-miterlimit="10" stroke-width="2"/><line x1="844.75613" y1="735.11926" x2="821.79481" y2="757.10113" fill="#fff" stroke="#fff" stroke-miterlimit="10" stroke-width="2"/><line x1="799.24488" y1="719.72249" x2="942.85813" y2="732.91972" fill="#fff" stroke="#fff" stroke-miterlimit="10" stroke-width="2"/><line x1="844.75613" y1="735.11926" x2="799.24488" y2="719.72249" fill="#fff" stroke="#fff" stroke-miterlimit="10" stroke-width="2"/><line x1="754.32075" y1="734.87599" x2="844.95755" y2="734.87599" fill="#fff" stroke="#fff" stroke-miterlimit="10" stroke-width="2"/></g></g></svg>